G04*
G04 #@! TF.GenerationSoftware,Altium Limited,Altium Designer,18.0.7 (293)*
G04*
G04 Layer_Color=16711935*
%FSLAX25Y25*%
%MOIN*%
G70*
G01*
G75*
%ADD13C,0.00050*%
%ADD14C,0.00051*%
D13*
X270013Y20005D02*
G03*
X270013Y20005I-13J0D01*
G01*
Y20000D02*
G03*
X270013Y20000I-13J0D01*
G01*
D02*
G03*
X270013Y20000I-13J0D01*
G01*
X260013Y10000D02*
G03*
X260013Y10000I-13J0D01*
G01*
X270013Y149000D02*
G03*
X270013Y149000I-13J0D01*
G01*
Y20005D02*
G03*
X270013Y20005I-13J0D01*
G01*
Y149000D02*
G03*
X270013Y149000I-13J0D01*
G01*
X260013Y159000D02*
G03*
X260013Y159000I-13J0D01*
G01*
X255013Y0D02*
G03*
X255013Y0I-13J0D01*
G01*
X5013D02*
G03*
X5013Y0I-13J0D01*
G01*
X260013Y5000D02*
G03*
X260013Y5000I-13J0D01*
G01*
X255013Y0D02*
G03*
X255013Y0I-13J0D01*
G01*
X260013Y10000D02*
G03*
X260013Y10000I-13J0D01*
G01*
Y5000D02*
G03*
X260013Y5000I-13J0D01*
G01*
Y205000D02*
G03*
X260013Y205000I-13J0D01*
G01*
Y159000D02*
G03*
X260013Y159000I-13J0D01*
G01*
X260013Y205000D02*
G03*
X260013Y205000I-13J0D01*
G01*
X255023Y209990D02*
G03*
X255023Y209990I-13J0D01*
G01*
X18Y205005D02*
G03*
X18Y205005I-13J0D01*
G01*
X18Y4995D02*
G03*
X18Y4995I-13J0D01*
G01*
X5003Y209990D02*
G03*
X5003Y209990I-13J0D01*
G01*
X18Y205005D02*
G03*
X18Y205005I-13J0D01*
G01*
X255013Y209990D02*
G03*
X255013Y209990I-13J0D01*
G01*
X5003D02*
G03*
X5003Y209990I-13J0D01*
G01*
X5013Y0D02*
G03*
X5013Y0I-13J0D01*
G01*
X18Y4995D02*
G03*
X18Y4995I-13J0D01*
G01*
X270000Y20000D02*
Y20005D01*
X260000Y10000D02*
X270000Y20000D01*
Y20005D02*
Y149000D01*
X260000Y159000D02*
X270000Y149000D01*
X5000Y0D02*
X255000D01*
X260000Y5000D01*
Y10000D01*
Y159000D02*
Y205000D01*
X255010Y209990D02*
X260000Y205000D01*
X5Y4995D02*
X5Y205005D01*
X4990Y209990D01*
X255000D01*
X5Y4995D02*
X5000Y0D01*
X270013Y20005D02*
G03*
X270013Y20005I-13J0D01*
G01*
Y20000D02*
G03*
X270013Y20000I-13J0D01*
G01*
D02*
G03*
X270013Y20000I-13J0D01*
G01*
X260013Y10000D02*
G03*
X260013Y10000I-13J0D01*
G01*
X270013Y149000D02*
G03*
X270013Y149000I-13J0D01*
G01*
Y20005D02*
G03*
X270013Y20005I-13J0D01*
G01*
Y149000D02*
G03*
X270013Y149000I-13J0D01*
G01*
X260013Y159000D02*
G03*
X260013Y159000I-13J0D01*
G01*
X255013Y0D02*
G03*
X255013Y0I-13J0D01*
G01*
X5013D02*
G03*
X5013Y0I-13J0D01*
G01*
X260013Y5000D02*
G03*
X260013Y5000I-13J0D01*
G01*
X255013Y0D02*
G03*
X255013Y0I-13J0D01*
G01*
X260013Y10000D02*
G03*
X260013Y10000I-13J0D01*
G01*
Y5000D02*
G03*
X260013Y5000I-13J0D01*
G01*
Y205000D02*
G03*
X260013Y205000I-13J0D01*
G01*
Y159000D02*
G03*
X260013Y159000I-13J0D01*
G01*
X260013Y205000D02*
G03*
X260013Y205000I-13J0D01*
G01*
X255023Y209990D02*
G03*
X255023Y209990I-13J0D01*
G01*
X18Y205005D02*
G03*
X18Y205005I-13J0D01*
G01*
X18Y4995D02*
G03*
X18Y4995I-13J0D01*
G01*
X5003Y209990D02*
G03*
X5003Y209990I-13J0D01*
G01*
X18Y205005D02*
G03*
X18Y205005I-13J0D01*
G01*
X255013Y209990D02*
G03*
X255013Y209990I-13J0D01*
G01*
X5003D02*
G03*
X5003Y209990I-13J0D01*
G01*
X5013Y0D02*
G03*
X5013Y0I-13J0D01*
G01*
X18Y4995D02*
G03*
X18Y4995I-13J0D01*
G01*
X270000Y20000D02*
Y20005D01*
X260000Y10000D02*
X270000Y20000D01*
Y20005D02*
Y149000D01*
X260000Y159000D02*
X270000Y149000D01*
X5000Y0D02*
X255000D01*
X260000Y5000D01*
Y10000D01*
Y159000D02*
Y205000D01*
X255010Y209990D02*
X260000Y205000D01*
X5Y4995D02*
X5Y205005D01*
X4990Y209990D01*
X255000D01*
X5Y4995D02*
X5000Y0D01*
D14*
X270000Y20000D02*
Y20005D01*
Y20000D02*
Y20005D01*
M02*
