M48
;Layer_Color=9474304
;FILE_FORMAT=2:5
INCH,LZ
;TYPE=PLATED
T1F00S00C0.03000
T2F00S00C0.03346
T3F00S00C0.03543
T4F00S00C0.04724
%
T01
X015Y0172441
Y0182441
T02
X013Y0033
Y0055
X016
Y0033
X0070039Y0140787
Y0152126
X0100039
Y0140787
X0204724Y0144449
Y0174449
T03
X023Y001
X024
X025
X022
X021
X02
X018
Y002
Y003
Y004
Y005
Y006
Y007
Y008
X015
Y007
X014
Y008
Y001
X015
X016
X017
X013
X011
X01
Y0027559
X009
X011
X012
X007Y01725
X006
X005
X008
X009
X01
X011
X012
X014Y0172441
Y0182441
X0144Y02
X0134
X0124
X0114
X0104
X0094
X0154
X0164
X018
Y019
Y018
Y017
Y016
Y015
Y014
Y013
Y012
Y011
Y01
Y009
X015
X014
Y01
X015
Y011
X014
Y012
X015
Y013
X014
Y014
Y015
X015
Y014
X019Y02
X02
X021
X022
X023
X024
X025
T04
X0019685Y0021654
Y0035433
Y0072835
X00514Y00208
X006518
X0019685Y0086614
Y0124016
Y0137795
X002Y0176221
Y019
M30
