G04*
G04 #@! TF.GenerationSoftware,Altium Limited,Altium Designer,18.0.7 (293)*
G04*
G04 Layer_Physical_Order=1*
G04 Layer_Color=255*
%FSLAX25Y25*%
%MOIN*%
G70*
G01*
G75*
%ADD13C,0.00050*%
%ADD14C,0.00051*%
%ADD20C,0.03000*%
%ADD21C,0.02000*%
%ADD22C,0.05906*%
%ADD23C,0.06000*%
%ADD24R,0.05906X0.05906*%
%ADD25C,0.05512*%
%ADD26C,0.07874*%
G36*
X142960Y89677D02*
X142987Y89393D01*
X143034Y89120D01*
X143101Y88857D01*
X143188Y88603D01*
X143295Y88360D01*
X143422Y88127D01*
X143570Y87905D01*
X143737Y87692D01*
X143924Y87490D01*
X142510Y86076D01*
X142308Y86263D01*
X142095Y86430D01*
X141873Y86577D01*
X141640Y86705D01*
X141397Y86812D01*
X141144Y86899D01*
X140880Y86966D01*
X140607Y87013D01*
X140323Y87040D01*
X140030Y87047D01*
X142953Y89970D01*
X142960Y89677D01*
D02*
G37*
G36*
X139971Y77047D02*
X139677Y77040D01*
X139393Y77013D01*
X139120Y76966D01*
X138856Y76899D01*
X138603Y76812D01*
X138360Y76705D01*
X138128Y76578D01*
X137905Y76430D01*
X137692Y76263D01*
X137490Y76076D01*
X136076Y77490D01*
X136263Y77692D01*
X136430Y77905D01*
X136577Y78127D01*
X136705Y78360D01*
X136812Y78603D01*
X136899Y78856D01*
X136966Y79120D01*
X137013Y79393D01*
X137040Y79677D01*
X137047Y79971D01*
X139971Y77047D01*
D02*
G37*
G36*
X183924Y72510D02*
X183737Y72308D01*
X183570Y72095D01*
X183423Y71873D01*
X183295Y71640D01*
X183188Y71397D01*
X183101Y71144D01*
X183034Y70880D01*
X182987Y70607D01*
X182960Y70323D01*
X182953Y70029D01*
X180029Y72953D01*
X180323Y72960D01*
X180607Y72987D01*
X180880Y73034D01*
X181143Y73101D01*
X181397Y73188D01*
X181640Y73295D01*
X181872Y73422D01*
X182095Y73570D01*
X182308Y73737D01*
X182510Y73924D01*
X183924Y72510D01*
D02*
G37*
G36*
X161009Y58957D02*
X161037Y58702D01*
X161084Y58455D01*
X161149Y58217D01*
X161232Y57987D01*
X161335Y57766D01*
X161455Y57553D01*
X161595Y57350D01*
X161753Y57155D01*
X161929Y56968D01*
X158071D01*
X158247Y57155D01*
X158405Y57350D01*
X158545Y57553D01*
X158666Y57766D01*
X158768Y57987D01*
X158851Y58217D01*
X158916Y58455D01*
X158963Y58702D01*
X158991Y58957D01*
X159000Y59222D01*
X161000D01*
X161009Y58957D01*
D02*
G37*
G36*
X162155Y56753D02*
X162350Y56595D01*
X162553Y56455D01*
X162766Y56335D01*
X162987Y56232D01*
X163216Y56149D01*
X163455Y56084D01*
X163702Y56037D01*
X163957Y56009D01*
X164222Y56000D01*
Y54000D01*
X163957Y53991D01*
X163702Y53963D01*
X163455Y53916D01*
X163216Y53851D01*
X162987Y53768D01*
X162766Y53666D01*
X162553Y53545D01*
X162350Y53405D01*
X162155Y53247D01*
X161968Y53071D01*
Y56929D01*
X162155Y56753D01*
D02*
G37*
G36*
X157915Y36512D02*
X158116Y36351D01*
X158323Y36209D01*
X158538Y36087D01*
X158759Y35983D01*
X158988Y35899D01*
X159223Y35835D01*
X159466Y35789D01*
X159716Y35763D01*
X159972Y35756D01*
X157244Y33028D01*
X157237Y33284D01*
X157211Y33534D01*
X157165Y33777D01*
X157101Y34012D01*
X157017Y34241D01*
X156913Y34462D01*
X156791Y34677D01*
X156649Y34884D01*
X156488Y35085D01*
X156308Y35278D01*
X157722Y36692D01*
X157915Y36512D01*
D02*
G37*
G36*
X162741Y33432D02*
X162916Y32957D01*
X163022Y32729D01*
X163140Y32509D01*
X163269Y32295D01*
X163410Y32088D01*
X163564Y31888D01*
X163729Y31694D01*
X163906Y31508D01*
X162900Y29686D01*
X162701Y29870D01*
X162498Y30027D01*
X162292Y30158D01*
X162081Y30264D01*
X161866Y30342D01*
X161648Y30395D01*
X161425Y30422D01*
X161199Y30422D01*
X160968Y30396D01*
X160734Y30344D01*
X162671Y33680D01*
X162741Y33432D01*
D02*
G37*
G36*
X211011Y14274D02*
X211043Y14006D01*
X211096Y13744D01*
X211171Y13489D01*
X211267Y13242D01*
X211384Y13001D01*
X211523Y12768D01*
X211683Y12541D01*
X211864Y12321D01*
X212067Y12109D01*
X207933D01*
X208136Y12321D01*
X208317Y12541D01*
X208477Y12768D01*
X208616Y13001D01*
X208733Y13242D01*
X208829Y13489D01*
X208904Y13744D01*
X208957Y14006D01*
X208989Y14274D01*
X209000Y14550D01*
X211000D01*
X211011Y14274D01*
D02*
G37*
G36*
X201011D02*
X201043Y14006D01*
X201096Y13744D01*
X201171Y13489D01*
X201267Y13242D01*
X201384Y13001D01*
X201523Y12768D01*
X201683Y12541D01*
X201864Y12321D01*
X202067Y12109D01*
X197933D01*
X198136Y12321D01*
X198317Y12541D01*
X198477Y12768D01*
X198616Y13001D01*
X198733Y13242D01*
X198829Y13489D01*
X198904Y13744D01*
X198957Y14006D01*
X198989Y14274D01*
X199000Y14550D01*
X201000D01*
X201011Y14274D01*
D02*
G37*
G36*
X237692Y13737D02*
X237905Y13570D01*
X238127Y13422D01*
X238360Y13295D01*
X238603Y13188D01*
X238857Y13101D01*
X239120Y13034D01*
X239393Y12987D01*
X239677Y12960D01*
X239970Y12953D01*
X237047Y10029D01*
X237040Y10323D01*
X237013Y10607D01*
X236966Y10880D01*
X236899Y11144D01*
X236812Y11397D01*
X236705Y11640D01*
X236578Y11873D01*
X236430Y12095D01*
X236263Y12308D01*
X236076Y12510D01*
X237490Y13924D01*
X237692Y13737D01*
D02*
G37*
G36*
X249888Y7059D02*
X249732Y7172D01*
X249548Y7229D01*
X249336D01*
X249096Y7172D01*
X248827Y7059D01*
X248530Y6889D01*
X248205Y6663D01*
X247851Y6380D01*
X247059Y5645D01*
X245645Y7059D01*
X246041Y7469D01*
X246663Y8205D01*
X246889Y8530D01*
X247059Y8827D01*
X247172Y9096D01*
X247229Y9336D01*
Y9548D01*
X247172Y9732D01*
X247059Y9888D01*
X249888Y7059D01*
D02*
G37*
G36*
X143924Y122510D02*
X143737Y122308D01*
X143570Y122095D01*
X143422Y121872D01*
X143295Y121640D01*
X143188Y121397D01*
X143101Y121143D01*
X143034Y120880D01*
X142987Y120607D01*
X142960Y120323D01*
X142953Y120029D01*
X140030Y122953D01*
X140323Y122960D01*
X140607Y122987D01*
X140880Y123034D01*
X141144Y123101D01*
X141397Y123188D01*
X141640Y123295D01*
X141873Y123423D01*
X142095Y123570D01*
X142308Y123737D01*
X142510Y123924D01*
X143924Y122510D01*
D02*
G37*
G36*
X136076Y137490D02*
X136263Y137692D01*
X136430Y137905D01*
X136577Y138128D01*
X136705Y138360D01*
X136812Y138603D01*
X136899Y138856D01*
X136966Y139120D01*
X137013Y139393D01*
X137040Y139677D01*
X137047Y139971D01*
X139971Y137047D01*
X139677Y137040D01*
X139393Y137013D01*
X139120Y136966D01*
X138856Y136899D01*
X138603Y136812D01*
X138360Y136705D01*
X138128Y136577D01*
X137905Y136430D01*
X137692Y136263D01*
X137490Y136076D01*
X136076Y137490D01*
D02*
G37*
G36*
X143089Y143565D02*
X142893Y143352D01*
X142730Y143137D01*
X142601Y142920D01*
X142504Y142702D01*
X142441Y142483D01*
X142410Y142262D01*
X142413Y142039D01*
X142449Y141815D01*
X142518Y141590D01*
X142620Y141363D01*
X138756Y142678D01*
X138985Y142789D01*
X139432Y143038D01*
X139649Y143176D01*
X140074Y143476D01*
X140280Y143640D01*
X140878Y144182D01*
X143089Y143565D01*
D02*
G37*
G36*
X93924Y175010D02*
X93737Y174808D01*
X93570Y174595D01*
X93423Y174372D01*
X93295Y174140D01*
X93188Y173897D01*
X93101Y173644D01*
X93034Y173380D01*
X92987Y173107D01*
X92960Y172823D01*
X92953Y172529D01*
X90030Y175453D01*
X90323Y175460D01*
X90607Y175487D01*
X90880Y175534D01*
X91144Y175601D01*
X91397Y175688D01*
X91640Y175795D01*
X91873Y175923D01*
X92095Y176070D01*
X92308Y176237D01*
X92510Y176424D01*
X93924Y175010D01*
D02*
G37*
G36*
X103924D02*
X103737Y174808D01*
X103570Y174595D01*
X103422Y174372D01*
X103295Y174140D01*
X103188Y173897D01*
X103101Y173644D01*
X103034Y173380D01*
X102987Y173107D01*
X102960Y172823D01*
X102953Y172529D01*
X100030Y175453D01*
X100323Y175460D01*
X100607Y175487D01*
X100880Y175534D01*
X101144Y175601D01*
X101397Y175688D01*
X101640Y175795D01*
X101873Y175923D01*
X102095Y176070D01*
X102308Y176237D01*
X102510Y176424D01*
X103924Y175010D01*
D02*
G37*
G36*
X135450Y183441D02*
X135726Y183452D01*
X135994Y183484D01*
X136256Y183537D01*
X136511Y183612D01*
X136758Y183708D01*
X136999Y183825D01*
X137232Y183964D01*
X137459Y184124D01*
X137679Y184305D01*
X137891Y184508D01*
Y180374D01*
X137679Y180577D01*
X137459Y180758D01*
X137232Y180918D01*
X136999Y181057D01*
X136758Y181174D01*
X136511Y181270D01*
X136256Y181345D01*
X135994Y181398D01*
X135726Y181430D01*
X135450Y181441D01*
Y183441D01*
D02*
G37*
G36*
X152510Y136076D02*
X152308Y136263D01*
X152095Y136430D01*
X151873Y136577D01*
X151640Y136705D01*
X151397Y136812D01*
X151144Y136899D01*
X150880Y136966D01*
X150607Y137013D01*
X150323Y137040D01*
X150030Y137047D01*
X152953Y139971D01*
X152960Y139677D01*
X152987Y139393D01*
X153034Y139120D01*
X153101Y138856D01*
X153188Y138603D01*
X153295Y138360D01*
X153422Y138128D01*
X153570Y137905D01*
X153737Y137692D01*
X153924Y137490D01*
X152510Y136076D01*
D02*
G37*
G36*
X149000Y167813D02*
X148989Y168091D01*
X148956Y168362D01*
X148901Y168628D01*
X148824Y168886D01*
X148725Y169138D01*
X148604Y169383D01*
X148461Y169622D01*
X148296Y169854D01*
X148109Y170080D01*
X147900Y170299D01*
X152100D01*
X151891Y170080D01*
X151704Y169854D01*
X151539Y169622D01*
X151396Y169383D01*
X151275Y169138D01*
X151176Y168886D01*
X151099Y168628D01*
X151044Y168362D01*
X151011Y168091D01*
X151000Y167813D01*
X149000D01*
D02*
G37*
G36*
X146020Y179875D02*
X146209Y180080D01*
X146378Y180295D01*
X146526Y180522D01*
X146655Y180759D01*
X146763Y181007D01*
X146851Y181266D01*
X146918Y181536D01*
X146966Y181817D01*
X146993Y182108D01*
X147000Y182411D01*
X149970Y179441D01*
X149667Y179434D01*
X149376Y179407D01*
X149095Y179359D01*
X148825Y179292D01*
X148566Y179204D01*
X148318Y179096D01*
X148081Y178967D01*
X147854Y178819D01*
X147639Y178650D01*
X147434Y178461D01*
X146020Y179875D01*
D02*
G37*
G36*
X206076Y197490D02*
X206263Y197692D01*
X206430Y197905D01*
X206577Y198127D01*
X206705Y198360D01*
X206812Y198603D01*
X206899Y198856D01*
X206966Y199120D01*
X207013Y199393D01*
X207040Y199677D01*
X207047Y199970D01*
X209970Y197047D01*
X209677Y197040D01*
X209393Y197013D01*
X209120Y196966D01*
X208857Y196899D01*
X208603Y196812D01*
X208360Y196705D01*
X208127Y196578D01*
X207905Y196430D01*
X207692Y196263D01*
X207490Y196076D01*
X206076Y197490D01*
D02*
G37*
G36*
X249000Y195059D02*
X248990Y195439D01*
X248960Y195779D01*
X248910Y196079D01*
X248840Y196339D01*
X248750Y196559D01*
X248640Y196739D01*
X248510Y196879D01*
X248360Y196979D01*
X248190Y197039D01*
X248000Y197059D01*
X252000D01*
X251810Y197039D01*
X251640Y196979D01*
X251490Y196879D01*
X251360Y196739D01*
X251250Y196559D01*
X251160Y196339D01*
X251090Y196079D01*
X251040Y195779D01*
X251010Y195439D01*
X251000Y195059D01*
X249000D01*
D02*
G37*
D13*
X270013Y20005D02*
G03*
X270013Y20005I-13J0D01*
G01*
Y20000D02*
G03*
X270013Y20000I-13J0D01*
G01*
D02*
G03*
X270013Y20000I-13J0D01*
G01*
X260013Y10000D02*
G03*
X260013Y10000I-13J0D01*
G01*
X270013Y149000D02*
G03*
X270013Y149000I-13J0D01*
G01*
Y20005D02*
G03*
X270013Y20005I-13J0D01*
G01*
Y149000D02*
G03*
X270013Y149000I-13J0D01*
G01*
X260013Y159000D02*
G03*
X260013Y159000I-13J0D01*
G01*
X255013Y0D02*
G03*
X255013Y0I-13J0D01*
G01*
X5013D02*
G03*
X5013Y0I-13J0D01*
G01*
X260013Y5000D02*
G03*
X260013Y5000I-13J0D01*
G01*
X255013Y0D02*
G03*
X255013Y0I-13J0D01*
G01*
X260013Y10000D02*
G03*
X260013Y10000I-13J0D01*
G01*
Y5000D02*
G03*
X260013Y5000I-13J0D01*
G01*
Y205000D02*
G03*
X260013Y205000I-13J0D01*
G01*
Y159000D02*
G03*
X260013Y159000I-13J0D01*
G01*
X260013Y205000D02*
G03*
X260013Y205000I-13J0D01*
G01*
X255023Y209990D02*
G03*
X255023Y209990I-13J0D01*
G01*
X18Y205005D02*
G03*
X18Y205005I-13J0D01*
G01*
X18Y4995D02*
G03*
X18Y4995I-13J0D01*
G01*
X5003Y209990D02*
G03*
X5003Y209990I-13J0D01*
G01*
X18Y205005D02*
G03*
X18Y205005I-13J0D01*
G01*
X255013Y209990D02*
G03*
X255013Y209990I-13J0D01*
G01*
X5003D02*
G03*
X5003Y209990I-13J0D01*
G01*
X5013Y0D02*
G03*
X5013Y0I-13J0D01*
G01*
X18Y4995D02*
G03*
X18Y4995I-13J0D01*
G01*
X270000Y20000D02*
Y20005D01*
X260000Y10000D02*
X270000Y20000D01*
Y20005D02*
Y149000D01*
X260000Y159000D02*
X270000Y149000D01*
X5000Y0D02*
X255000D01*
X260000Y5000D01*
Y10000D01*
Y159000D02*
Y205000D01*
X255010Y209990D02*
X260000Y205000D01*
X5Y4995D02*
X5Y205005D01*
X4990Y209990D01*
X255000D01*
X5Y4995D02*
X5000Y0D01*
D14*
X270000Y20000D02*
Y20005D01*
D20*
X100039Y84961D02*
Y140787D01*
Y84961D02*
X130000Y55000D01*
X130787Y140787D02*
X140000Y150000D01*
X100039Y140787D02*
X130787D01*
X120000Y172087D02*
Y172500D01*
X100039Y152126D02*
X120000Y172087D01*
X50000Y67559D02*
X90000Y27559D01*
X140000Y150000D02*
Y152500D01*
X120000Y172500D02*
X140000Y152500D01*
X130000Y33000D02*
Y55000D01*
Y33000D02*
X140000Y23000D01*
Y10000D02*
Y23000D01*
D21*
X80000Y164724D02*
X90709Y154016D01*
Y56850D02*
Y154016D01*
Y56850D02*
X120000Y27559D01*
X80000Y164724D02*
Y172500D01*
X81732Y55827D02*
X110000Y27559D01*
X81732Y55827D02*
Y154016D01*
X70000Y165748D02*
X81732Y154016D01*
X70000Y165748D02*
Y172500D01*
X60000Y67559D02*
Y172500D01*
X50000Y67559D02*
Y172500D01*
X100000D02*
X100157Y172343D01*
X60000Y67559D02*
X100000Y27559D01*
X240000Y190000D02*
Y200000D01*
X180000Y130000D02*
X240000Y190000D01*
X230000Y190315D02*
Y200000D01*
X199685Y160000D02*
X230000Y190315D01*
X180000Y160000D02*
X199685D01*
X140000Y141890D02*
X145039Y146929D01*
X124000Y124000D02*
X140000Y140000D01*
X124000Y69000D02*
Y124000D01*
X161000Y45000D02*
X189000D01*
X145000Y61000D02*
X161000Y45000D01*
X189000D02*
X210000Y24000D01*
X145012Y177453D02*
X150000Y182441D01*
X104953Y177453D02*
X145012D01*
X100000Y172500D02*
X104953Y177453D01*
X90000Y172500D02*
X99941Y182441D01*
X140000D01*
Y140000D02*
Y141890D01*
X145039Y146929D02*
Y153071D01*
X150000Y158031D01*
Y172441D01*
X185047Y175047D02*
X210000Y200000D01*
X178043Y175047D02*
X185047D01*
X170551Y167555D02*
X178043Y175047D01*
X170551Y150866D02*
Y167555D01*
X164638Y144953D02*
X170551Y150866D01*
X147949Y144953D02*
X164638D01*
X145047Y142051D02*
X147949Y144953D01*
X145047Y125047D02*
Y142051D01*
X140000Y120000D02*
X145047Y125047D01*
X160000Y55000D02*
X195000D01*
X240000Y10000D01*
X165000Y35000D02*
X187000D01*
X133000Y67000D02*
X165000Y35000D01*
X133000Y67000D02*
Y73000D01*
X169000Y25000D02*
X186000D01*
X161000Y33000D02*
X169000Y25000D01*
X160000Y33000D02*
X161000D01*
X200000Y10000D02*
Y22000D01*
X187000Y35000D02*
X200000Y22000D01*
X133000Y73000D02*
X140000Y80000D01*
X124000Y69000D02*
X160000Y33000D01*
X210000Y10000D02*
Y24000D01*
X145000Y61000D02*
Y85000D01*
X140000Y90000D02*
X145000Y85000D01*
X244000Y4000D02*
X250000Y10000D01*
X194000Y4000D02*
X244000D01*
X191000Y7000D02*
X194000Y4000D01*
X191000Y7000D02*
Y20000D01*
X186000Y25000D02*
X191000Y20000D01*
X160000Y55000D02*
Y130000D01*
X150000Y140000D02*
X160000Y130000D01*
X250000Y140000D02*
Y200000D01*
X180000Y70000D02*
X250000Y140000D01*
D22*
X50000Y172500D02*
D03*
X60000D02*
D03*
X70000D02*
D03*
X80000D02*
D03*
X90000D02*
D03*
X100000D02*
D03*
X110000D02*
D03*
X120000D02*
D03*
X140000Y70000D02*
D03*
X150000D02*
D03*
X140000Y80000D02*
D03*
X150000D02*
D03*
Y90000D02*
D03*
X140000D02*
D03*
Y100000D02*
D03*
X150000D02*
D03*
X140000Y110000D02*
D03*
X150000D02*
D03*
Y120000D02*
D03*
X140000D02*
D03*
Y130000D02*
D03*
Y140000D02*
D03*
X150000Y150000D02*
D03*
X140000D02*
D03*
X150000Y130000D02*
D03*
Y140000D02*
D03*
X140000Y182441D02*
D03*
Y172441D02*
D03*
X180000Y190000D02*
D03*
Y180000D02*
D03*
Y170000D02*
D03*
Y160000D02*
D03*
Y150000D02*
D03*
Y140000D02*
D03*
Y130000D02*
D03*
Y120000D02*
D03*
Y110000D02*
D03*
Y100000D02*
D03*
Y90000D02*
D03*
Y80000D02*
D03*
Y70000D02*
D03*
Y60000D02*
D03*
Y50000D02*
D03*
Y40000D02*
D03*
Y30000D02*
D03*
Y20000D02*
D03*
X114000Y200000D02*
D03*
X124000D02*
D03*
X134000D02*
D03*
X144000D02*
D03*
X154000D02*
D03*
X180000D02*
D03*
X190000D02*
D03*
X200000D02*
D03*
X210000D02*
D03*
X220000D02*
D03*
X230000D02*
D03*
X240000D02*
D03*
Y10000D02*
D03*
X230000D02*
D03*
X220000D02*
D03*
X210000D02*
D03*
X200000D02*
D03*
X170000D02*
D03*
X160000D02*
D03*
X150000D02*
D03*
X140000D02*
D03*
X130000D02*
D03*
X104000Y200000D02*
D03*
X94000D02*
D03*
X90000Y27559D02*
D03*
X100000D02*
D03*
X110000D02*
D03*
X120000D02*
D03*
X110000Y10000D02*
D03*
D23*
X150000Y172441D02*
D03*
Y182441D02*
D03*
D24*
X164000Y200000D02*
D03*
X250000D02*
D03*
Y10000D02*
D03*
X180000D02*
D03*
D25*
X130000Y33000D02*
D03*
X160000D02*
D03*
X130000Y55000D02*
D03*
X160000D02*
D03*
X204724Y144449D02*
D03*
Y174449D02*
D03*
X100039Y152126D02*
D03*
X70039D02*
D03*
X100039Y140787D02*
D03*
X70039D02*
D03*
D26*
X100000Y10000D02*
D03*
X51400Y20800D02*
D03*
X65180D02*
D03*
X19685Y35433D02*
D03*
Y21654D02*
D03*
Y86614D02*
D03*
Y72835D02*
D03*
Y137795D02*
D03*
Y124016D02*
D03*
X20000Y190000D02*
D03*
Y176221D02*
D03*
M02*
