G04*
G04 #@! TF.GenerationSoftware,Altium Limited,Altium Designer,18.0.7 (293)*
G04*
G04 Layer_Physical_Order=4*
G04 Layer_Color=16711680*
%FSLAX25Y25*%
%MOIN*%
G70*
G01*
G75*
%ADD13C,0.00050*%
%ADD14C,0.00051*%
%ADD20C,0.03000*%
%ADD21C,0.02000*%
%ADD22C,0.05906*%
%ADD23C,0.06000*%
%ADD24R,0.05906X0.05906*%
%ADD25C,0.05512*%
%ADD26C,0.07874*%
G36*
X153924Y102510D02*
X153737Y102308D01*
X153570Y102095D01*
X153422Y101873D01*
X153295Y101640D01*
X153188Y101397D01*
X153101Y101144D01*
X153034Y100880D01*
X152987Y100607D01*
X152960Y100323D01*
X152953Y100030D01*
X150030Y102953D01*
X150323Y102960D01*
X150607Y102987D01*
X150880Y103034D01*
X151144Y103101D01*
X151397Y103188D01*
X151640Y103295D01*
X151873Y103422D01*
X152095Y103570D01*
X152308Y103737D01*
X152510Y103924D01*
X153924Y102510D01*
D02*
G37*
G36*
X137692Y103737D02*
X137905Y103570D01*
X138128Y103422D01*
X138360Y103295D01*
X138603Y103188D01*
X138856Y103101D01*
X139120Y103034D01*
X139393Y102987D01*
X139677Y102960D01*
X139971Y102953D01*
X137047Y100030D01*
X137040Y100323D01*
X137013Y100607D01*
X136966Y100880D01*
X136899Y101144D01*
X136812Y101397D01*
X136705Y101640D01*
X136577Y101873D01*
X136430Y102095D01*
X136263Y102308D01*
X136076Y102510D01*
X137490Y103924D01*
X137692Y103737D01*
D02*
G37*
G36*
X153924Y92510D02*
X153737Y92308D01*
X153570Y92095D01*
X153422Y91873D01*
X153295Y91640D01*
X153188Y91397D01*
X153101Y91144D01*
X153034Y90880D01*
X152987Y90607D01*
X152960Y90323D01*
X152953Y90030D01*
X150030Y92953D01*
X150323Y92960D01*
X150607Y92987D01*
X150880Y93034D01*
X151144Y93101D01*
X151397Y93188D01*
X151640Y93295D01*
X151873Y93423D01*
X152095Y93570D01*
X152308Y93737D01*
X152510Y93924D01*
X153924Y92510D01*
D02*
G37*
G36*
Y82510D02*
X153737Y82308D01*
X153570Y82095D01*
X153422Y81872D01*
X153295Y81640D01*
X153188Y81397D01*
X153101Y81143D01*
X153034Y80880D01*
X152987Y80607D01*
X152960Y80323D01*
X152953Y80029D01*
X150030Y82953D01*
X150323Y82960D01*
X150607Y82987D01*
X150880Y83034D01*
X151144Y83101D01*
X151397Y83188D01*
X151640Y83295D01*
X151873Y83422D01*
X152095Y83570D01*
X152308Y83737D01*
X152510Y83924D01*
X153924Y82510D01*
D02*
G37*
G36*
X183924Y62510D02*
X183737Y62308D01*
X183570Y62095D01*
X183423Y61873D01*
X183295Y61640D01*
X183188Y61397D01*
X183101Y61143D01*
X183034Y60880D01*
X182987Y60607D01*
X182960Y60323D01*
X182953Y60030D01*
X180029Y62953D01*
X180323Y62960D01*
X180607Y62987D01*
X180880Y63034D01*
X181143Y63101D01*
X181397Y63188D01*
X181640Y63295D01*
X181872Y63423D01*
X182095Y63570D01*
X182308Y63737D01*
X182510Y63924D01*
X183924Y62510D01*
D02*
G37*
G36*
X137490Y113924D02*
X137692Y113737D01*
X137905Y113570D01*
X138128Y113423D01*
X138360Y113295D01*
X138603Y113188D01*
X138856Y113101D01*
X139120Y113034D01*
X139393Y112987D01*
X139677Y112960D01*
X139971Y112953D01*
X137047Y110029D01*
X137040Y110323D01*
X137013Y110607D01*
X136966Y110880D01*
X136899Y111144D01*
X136812Y111397D01*
X136705Y111640D01*
X136577Y111872D01*
X136430Y112095D01*
X136263Y112308D01*
X136076Y112510D01*
X137490Y113924D01*
D02*
G37*
G36*
X153924Y112510D02*
X153737Y112308D01*
X153570Y112095D01*
X153422Y111872D01*
X153295Y111640D01*
X153188Y111397D01*
X153101Y111144D01*
X153034Y110880D01*
X152987Y110607D01*
X152960Y110323D01*
X152953Y110029D01*
X150030Y112953D01*
X150323Y112960D01*
X150607Y112987D01*
X150880Y113034D01*
X151144Y113101D01*
X151397Y113188D01*
X151640Y113295D01*
X151873Y113423D01*
X152095Y113570D01*
X152308Y113737D01*
X152510Y113924D01*
X153924Y112510D01*
D02*
G37*
G36*
X154164Y121749D02*
X153982Y121556D01*
X153812Y121352D01*
X153653Y121137D01*
X153507Y120911D01*
X153372Y120673D01*
X153249Y120425D01*
X153138Y120166D01*
X153038Y119895D01*
X152874Y119322D01*
X150736Y122860D01*
X151004Y122803D01*
X151266Y122775D01*
X151522Y122774D01*
X151770Y122800D01*
X152013Y122854D01*
X152248Y122936D01*
X152477Y123045D01*
X152699Y123181D01*
X152914Y123346D01*
X153123Y123538D01*
X154164Y121749D01*
D02*
G37*
G36*
X137490Y133924D02*
X137692Y133737D01*
X137905Y133570D01*
X138128Y133423D01*
X138360Y133295D01*
X138603Y133188D01*
X138856Y133101D01*
X139120Y133034D01*
X139393Y132987D01*
X139677Y132960D01*
X139971Y132953D01*
X137047Y130029D01*
X137040Y130323D01*
X137013Y130607D01*
X136966Y130880D01*
X136899Y131143D01*
X136812Y131397D01*
X136705Y131640D01*
X136577Y131872D01*
X136430Y132095D01*
X136263Y132308D01*
X136076Y132510D01*
X137490Y133924D01*
D02*
G37*
G36*
X147490Y143924D02*
X147692Y143737D01*
X147905Y143570D01*
X148127Y143422D01*
X148360Y143295D01*
X148603Y143188D01*
X148856Y143101D01*
X149120Y143034D01*
X149393Y142987D01*
X149677Y142960D01*
X149970Y142953D01*
X147047Y140030D01*
X147040Y140323D01*
X147013Y140607D01*
X146966Y140880D01*
X146899Y141144D01*
X146812Y141397D01*
X146705Y141640D01*
X146578Y141873D01*
X146430Y142095D01*
X146263Y142308D01*
X146076Y142510D01*
X147490Y143924D01*
D02*
G37*
G36*
X153924Y132510D02*
X153737Y132308D01*
X153570Y132095D01*
X153422Y131872D01*
X153295Y131640D01*
X153188Y131397D01*
X153101Y131143D01*
X153034Y130880D01*
X152987Y130607D01*
X152960Y130323D01*
X152953Y130029D01*
X150030Y132953D01*
X150323Y132960D01*
X150607Y132987D01*
X150880Y133034D01*
X151144Y133101D01*
X151397Y133188D01*
X151640Y133295D01*
X151873Y133423D01*
X152095Y133570D01*
X152308Y133737D01*
X152510Y133924D01*
X153924Y132510D01*
D02*
G37*
G36*
X116510Y196076D02*
X116308Y196263D01*
X116095Y196430D01*
X115873Y196578D01*
X115640Y196705D01*
X115397Y196812D01*
X115144Y196899D01*
X114880Y196966D01*
X114607Y197013D01*
X114323Y197040D01*
X114030Y197047D01*
X116953Y199970D01*
X116960Y199677D01*
X116987Y199393D01*
X117034Y199120D01*
X117101Y198856D01*
X117188Y198603D01*
X117295Y198360D01*
X117422Y198127D01*
X117570Y197905D01*
X117737Y197692D01*
X117924Y197490D01*
X116510Y196076D01*
D02*
G37*
G36*
X126510D02*
X126308Y196263D01*
X126095Y196430D01*
X125873Y196578D01*
X125640Y196705D01*
X125397Y196812D01*
X125144Y196899D01*
X124880Y196966D01*
X124607Y197013D01*
X124323Y197040D01*
X124030Y197047D01*
X126953Y199970D01*
X126960Y199677D01*
X126987Y199393D01*
X127034Y199120D01*
X127101Y198856D01*
X127188Y198603D01*
X127295Y198360D01*
X127422Y198127D01*
X127570Y197905D01*
X127737Y197692D01*
X127924Y197490D01*
X126510Y196076D01*
D02*
G37*
G36*
X133000Y195450D02*
X132989Y195726D01*
X132957Y195994D01*
X132904Y196256D01*
X132829Y196511D01*
X132733Y196758D01*
X132616Y196999D01*
X132477Y197232D01*
X132317Y197459D01*
X132136Y197679D01*
X131933Y197891D01*
X136067D01*
X135864Y197679D01*
X135683Y197459D01*
X135523Y197232D01*
X135384Y196999D01*
X135267Y196758D01*
X135171Y196511D01*
X135096Y196256D01*
X135043Y195994D01*
X135011Y195726D01*
X135000Y195450D01*
X133000D01*
D02*
G37*
G36*
X139000Y167891D02*
X138989Y168167D01*
X138957Y168435D01*
X138904Y168697D01*
X138829Y168951D01*
X138733Y169199D01*
X138616Y169440D01*
X138477Y169673D01*
X138317Y169900D01*
X138136Y170120D01*
X137933Y170332D01*
X142067D01*
X141864Y170120D01*
X141683Y169900D01*
X141523Y169673D01*
X141384Y169440D01*
X141267Y169199D01*
X141171Y168951D01*
X141096Y168697D01*
X141043Y168435D01*
X141011Y168167D01*
X141000Y167891D01*
X139000D01*
D02*
G37*
G36*
X146510Y196076D02*
X146308Y196263D01*
X146095Y196430D01*
X145872Y196578D01*
X145640Y196705D01*
X145397Y196812D01*
X145143Y196899D01*
X144880Y196966D01*
X144607Y197013D01*
X144323Y197040D01*
X144029Y197047D01*
X146953Y199970D01*
X146960Y199677D01*
X146987Y199393D01*
X147034Y199120D01*
X147101Y198856D01*
X147188Y198603D01*
X147295Y198360D01*
X147423Y198127D01*
X147570Y197905D01*
X147737Y197692D01*
X147924Y197490D01*
X146510Y196076D01*
D02*
G37*
G36*
X156510D02*
X156308Y196263D01*
X156095Y196430D01*
X155872Y196578D01*
X155640Y196705D01*
X155397Y196812D01*
X155143Y196899D01*
X154880Y196966D01*
X154607Y197013D01*
X154323Y197040D01*
X154030Y197047D01*
X156953Y199970D01*
X156960Y199677D01*
X156987Y199393D01*
X157034Y199120D01*
X157101Y198856D01*
X157188Y198603D01*
X157295Y198360D01*
X157422Y198127D01*
X157570Y197905D01*
X157737Y197692D01*
X157924Y197490D01*
X156510Y196076D01*
D02*
G37*
G36*
X179971Y197047D02*
X179677Y197040D01*
X179393Y197013D01*
X179120Y196966D01*
X178857Y196899D01*
X178603Y196812D01*
X178360Y196705D01*
X178128Y196578D01*
X177905Y196430D01*
X177692Y196263D01*
X177490Y196076D01*
X176076Y197490D01*
X176263Y197692D01*
X176430Y197905D01*
X176577Y198127D01*
X176705Y198360D01*
X176812Y198603D01*
X176899Y198856D01*
X176966Y199120D01*
X177013Y199393D01*
X177040Y199677D01*
X177047Y199970D01*
X179971Y197047D01*
D02*
G37*
G36*
X201864Y197679D02*
X201683Y197459D01*
X201523Y197232D01*
X201384Y196999D01*
X201267Y196758D01*
X201171Y196511D01*
X201096Y196256D01*
X201043Y195994D01*
X201011Y195726D01*
X201000Y195450D01*
X199000D01*
X198989Y195726D01*
X198957Y195994D01*
X198904Y196256D01*
X198829Y196511D01*
X198733Y196758D01*
X198616Y196999D01*
X198477Y197232D01*
X198317Y197459D01*
X198136Y197679D01*
X197933Y197891D01*
X202067D01*
X201864Y197679D01*
D02*
G37*
G36*
X191864D02*
X191683Y197459D01*
X191523Y197232D01*
X191384Y196999D01*
X191267Y196758D01*
X191171Y196511D01*
X191096Y196256D01*
X191043Y195994D01*
X191011Y195726D01*
X191000Y195450D01*
X189000D01*
X188989Y195726D01*
X188957Y195994D01*
X188904Y196256D01*
X188829Y196511D01*
X188733Y196758D01*
X188616Y196999D01*
X188477Y197232D01*
X188317Y197459D01*
X188136Y197679D01*
X187933Y197891D01*
X192067D01*
X191864Y197679D01*
D02*
G37*
G36*
X163810Y197039D02*
X163640Y196979D01*
X163490Y196879D01*
X163360Y196739D01*
X163250Y196559D01*
X163160Y196339D01*
X163090Y196079D01*
X163040Y195779D01*
X163010Y195439D01*
X163000Y195059D01*
X161000D01*
X161059Y197059D01*
X164000D01*
X163810Y197039D01*
D02*
G37*
G36*
X182960Y149677D02*
X182987Y149393D01*
X183034Y149120D01*
X183101Y148856D01*
X183188Y148603D01*
X183295Y148360D01*
X183423Y148127D01*
X183570Y147905D01*
X183737Y147692D01*
X183924Y147490D01*
X182510Y146076D01*
X182308Y146263D01*
X182095Y146430D01*
X181872Y146578D01*
X181640Y146705D01*
X181397Y146812D01*
X181143Y146899D01*
X180880Y146966D01*
X180607Y147013D01*
X180323Y147040D01*
X180029Y147047D01*
X182953Y149970D01*
X182960Y149677D01*
D02*
G37*
D13*
X270013Y20005D02*
G03*
X270013Y20005I-13J0D01*
G01*
Y20000D02*
G03*
X270013Y20000I-13J0D01*
G01*
D02*
G03*
X270013Y20000I-13J0D01*
G01*
X260013Y10000D02*
G03*
X260013Y10000I-13J0D01*
G01*
X270013Y149000D02*
G03*
X270013Y149000I-13J0D01*
G01*
Y20005D02*
G03*
X270013Y20005I-13J0D01*
G01*
Y149000D02*
G03*
X270013Y149000I-13J0D01*
G01*
X260013Y159000D02*
G03*
X260013Y159000I-13J0D01*
G01*
X255013Y0D02*
G03*
X255013Y0I-13J0D01*
G01*
X5013D02*
G03*
X5013Y0I-13J0D01*
G01*
X260013Y5000D02*
G03*
X260013Y5000I-13J0D01*
G01*
X255013Y0D02*
G03*
X255013Y0I-13J0D01*
G01*
X260013Y10000D02*
G03*
X260013Y10000I-13J0D01*
G01*
Y5000D02*
G03*
X260013Y5000I-13J0D01*
G01*
Y205000D02*
G03*
X260013Y205000I-13J0D01*
G01*
Y159000D02*
G03*
X260013Y159000I-13J0D01*
G01*
X260013Y205000D02*
G03*
X260013Y205000I-13J0D01*
G01*
X255023Y209990D02*
G03*
X255023Y209990I-13J0D01*
G01*
X18Y205005D02*
G03*
X18Y205005I-13J0D01*
G01*
X18Y4995D02*
G03*
X18Y4995I-13J0D01*
G01*
X5003Y209990D02*
G03*
X5003Y209990I-13J0D01*
G01*
X18Y205005D02*
G03*
X18Y205005I-13J0D01*
G01*
X255013Y209990D02*
G03*
X255013Y209990I-13J0D01*
G01*
X5003D02*
G03*
X5003Y209990I-13J0D01*
G01*
X5013Y0D02*
G03*
X5013Y0I-13J0D01*
G01*
X18Y4995D02*
G03*
X18Y4995I-13J0D01*
G01*
X270000Y20000D02*
Y20005D01*
X260000Y10000D02*
X270000Y20000D01*
Y20005D02*
Y149000D01*
X260000Y159000D02*
X270000Y149000D01*
X5000Y0D02*
X255000D01*
X260000Y5000D01*
Y10000D01*
Y159000D02*
Y205000D01*
X255010Y209990D02*
X260000Y205000D01*
X5Y4995D02*
X5Y205005D01*
X4990Y209990D01*
X255000D01*
X5Y4995D02*
X5000Y0D01*
D14*
X270000Y20000D02*
Y20005D01*
D20*
X196496Y25000D02*
X204724Y33228D01*
Y144449D01*
X150000Y10000D02*
X165000Y25000D01*
D21*
X196496D01*
X100000Y170748D02*
Y172500D01*
X70039Y140787D02*
X100000Y170748D01*
X90000Y172087D02*
Y172500D01*
X70039Y152126D02*
X90000Y172087D01*
X192000Y122000D02*
Y138000D01*
X180000Y110000D02*
X192000Y122000D01*
X180000Y150000D02*
X192000Y138000D01*
X180276Y150000D02*
X204724Y174449D01*
X180000Y150000D02*
X180276D01*
X140000Y70000D02*
X140315Y69685D01*
Y20315D02*
Y69685D01*
X130000Y10000D02*
X140315Y20315D01*
X145039Y144961D02*
X150000Y140000D01*
X145039Y144961D02*
Y159213D01*
X140000Y164252D02*
X145039Y159213D01*
X140000Y164252D02*
Y172441D01*
X154000Y200000D02*
X158000Y196000D01*
Y127000D02*
Y196000D01*
X151000Y120000D02*
X158000Y127000D01*
X144000Y200000D02*
X155000Y189000D01*
Y135000D02*
Y189000D01*
X150000Y130000D02*
X155000Y135000D01*
X150000Y120000D02*
X151000D01*
X162000Y198000D02*
X164000Y200000D01*
X162000Y122000D02*
Y198000D01*
X150000Y110000D02*
X162000Y122000D01*
X114000Y200000D02*
X126000Y188000D01*
Y114000D02*
Y188000D01*
Y114000D02*
X140000Y100000D01*
X124000Y200000D02*
X130000Y194000D01*
Y120000D02*
Y194000D01*
Y120000D02*
X140000Y110000D01*
X134000Y136000D02*
Y200000D01*
Y136000D02*
X140000Y130000D01*
X200000Y185000D02*
Y200000D01*
X190000Y175000D02*
X200000Y185000D01*
X177996Y175000D02*
X190000D01*
X174000Y171004D02*
X177996Y175000D01*
X174000Y104000D02*
Y171004D01*
X150000Y80000D02*
X174000Y104000D01*
X190000Y192000D02*
Y200000D01*
X183000Y185000D02*
X190000Y192000D01*
X175000Y185000D02*
X183000D01*
X170000Y180000D02*
X175000Y185000D01*
X170000Y110000D02*
Y180000D01*
X150000Y90000D02*
X170000Y110000D01*
X166000Y186000D02*
X180000Y200000D01*
X166000Y116000D02*
Y186000D01*
X150000Y100000D02*
X166000Y116000D01*
X180000Y110000D02*
X191000Y99000D01*
X180000Y60000D02*
X191000Y71000D01*
Y99000D01*
D22*
X50000Y172500D02*
D03*
X60000D02*
D03*
X70000D02*
D03*
X80000D02*
D03*
X90000D02*
D03*
X100000D02*
D03*
X110000D02*
D03*
X120000D02*
D03*
X140000Y70000D02*
D03*
X150000D02*
D03*
X140000Y80000D02*
D03*
X150000D02*
D03*
Y90000D02*
D03*
X140000D02*
D03*
Y100000D02*
D03*
X150000D02*
D03*
X140000Y110000D02*
D03*
X150000D02*
D03*
Y120000D02*
D03*
X140000D02*
D03*
Y130000D02*
D03*
Y140000D02*
D03*
X150000Y150000D02*
D03*
X140000D02*
D03*
X150000Y130000D02*
D03*
Y140000D02*
D03*
X140000Y182441D02*
D03*
Y172441D02*
D03*
X180000Y190000D02*
D03*
Y180000D02*
D03*
Y170000D02*
D03*
Y160000D02*
D03*
Y150000D02*
D03*
Y140000D02*
D03*
Y130000D02*
D03*
Y120000D02*
D03*
Y110000D02*
D03*
Y100000D02*
D03*
Y90000D02*
D03*
Y80000D02*
D03*
Y70000D02*
D03*
Y60000D02*
D03*
Y50000D02*
D03*
Y40000D02*
D03*
Y30000D02*
D03*
Y20000D02*
D03*
X114000Y200000D02*
D03*
X124000D02*
D03*
X134000D02*
D03*
X144000D02*
D03*
X154000D02*
D03*
X180000D02*
D03*
X190000D02*
D03*
X200000D02*
D03*
X210000D02*
D03*
X220000D02*
D03*
X230000D02*
D03*
X240000D02*
D03*
Y10000D02*
D03*
X230000D02*
D03*
X220000D02*
D03*
X210000D02*
D03*
X200000D02*
D03*
X170000D02*
D03*
X160000D02*
D03*
X150000D02*
D03*
X140000D02*
D03*
X130000D02*
D03*
X104000Y200000D02*
D03*
X94000D02*
D03*
X90000Y27559D02*
D03*
X100000D02*
D03*
X110000D02*
D03*
X120000D02*
D03*
X110000Y10000D02*
D03*
D23*
X150000Y172441D02*
D03*
Y182441D02*
D03*
D24*
X164000Y200000D02*
D03*
X250000D02*
D03*
Y10000D02*
D03*
X180000D02*
D03*
D25*
X130000Y33000D02*
D03*
X160000D02*
D03*
X130000Y55000D02*
D03*
X160000D02*
D03*
X204724Y144449D02*
D03*
Y174449D02*
D03*
X100039Y152126D02*
D03*
X70039D02*
D03*
X100039Y140787D02*
D03*
X70039D02*
D03*
D26*
X100000Y10000D02*
D03*
X51400Y20800D02*
D03*
X65180D02*
D03*
X19685Y35433D02*
D03*
Y21654D02*
D03*
Y86614D02*
D03*
Y72835D02*
D03*
Y137795D02*
D03*
Y124016D02*
D03*
X20000Y190000D02*
D03*
Y176221D02*
D03*
M02*
