G04*
G04 #@! TF.GenerationSoftware,Altium Limited,Altium Designer,18.0.7 (293)*
G04*
G04 Layer_Physical_Order=3*
G04 Layer_Color=16440176*
%FSLAX25Y25*%
%MOIN*%
G70*
G01*
G75*
%ADD13C,0.00050*%
%ADD14C,0.00051*%
%ADD26C,0.07874*%
G36*
X259000Y204500D02*
Y158500D01*
X269000Y148500D01*
Y20400D01*
X259100Y10600D01*
X259000Y10500D01*
Y5500D01*
X254500Y1000D01*
X5500D01*
X1000Y5500D01*
Y205000D01*
X5000Y209000D01*
X254500D01*
X259000Y204500D01*
D02*
G37*
%LPC*%
G36*
X253953Y203953D02*
X246047D01*
Y196047D01*
X253953D01*
Y203953D01*
D02*
G37*
G36*
X167953D02*
X160047D01*
Y196047D01*
X167953D01*
Y203953D01*
D02*
G37*
G36*
X240000Y203987D02*
X238968Y203851D01*
X238007Y203453D01*
X237181Y202819D01*
X236547Y201993D01*
X236149Y201032D01*
X236013Y200000D01*
X236149Y198968D01*
X236547Y198007D01*
X237181Y197181D01*
X238007Y196547D01*
X238968Y196149D01*
X240000Y196013D01*
X241032Y196149D01*
X241993Y196547D01*
X242819Y197181D01*
X243453Y198007D01*
X243851Y198968D01*
X243987Y200000D01*
X243851Y201032D01*
X243453Y201993D01*
X242819Y202819D01*
X241993Y203453D01*
X241032Y203851D01*
X240000Y203987D01*
D02*
G37*
G36*
X230000D02*
X228968Y203851D01*
X228007Y203453D01*
X227181Y202819D01*
X226547Y201993D01*
X226149Y201032D01*
X226013Y200000D01*
X226149Y198968D01*
X226547Y198007D01*
X227181Y197181D01*
X228007Y196547D01*
X228968Y196149D01*
X230000Y196013D01*
X231032Y196149D01*
X231993Y196547D01*
X232819Y197181D01*
X233453Y198007D01*
X233851Y198968D01*
X233987Y200000D01*
X233851Y201032D01*
X233453Y201993D01*
X232819Y202819D01*
X231993Y203453D01*
X231032Y203851D01*
X230000Y203987D01*
D02*
G37*
G36*
X220000D02*
X218968Y203851D01*
X218007Y203453D01*
X217181Y202819D01*
X216547Y201993D01*
X216149Y201032D01*
X216013Y200000D01*
X216149Y198968D01*
X216547Y198007D01*
X217181Y197181D01*
X218007Y196547D01*
X218968Y196149D01*
X220000Y196013D01*
X221032Y196149D01*
X221993Y196547D01*
X222819Y197181D01*
X223453Y198007D01*
X223851Y198968D01*
X223987Y200000D01*
X223851Y201032D01*
X223453Y201993D01*
X222819Y202819D01*
X221993Y203453D01*
X221032Y203851D01*
X220000Y203987D01*
D02*
G37*
G36*
X210000D02*
X208968Y203851D01*
X208007Y203453D01*
X207181Y202819D01*
X206547Y201993D01*
X206149Y201032D01*
X206013Y200000D01*
X206149Y198968D01*
X206547Y198007D01*
X207181Y197181D01*
X208007Y196547D01*
X208968Y196149D01*
X210000Y196013D01*
X211032Y196149D01*
X211993Y196547D01*
X212819Y197181D01*
X213453Y198007D01*
X213851Y198968D01*
X213987Y200000D01*
X213851Y201032D01*
X213453Y201993D01*
X212819Y202819D01*
X211993Y203453D01*
X211032Y203851D01*
X210000Y203987D01*
D02*
G37*
G36*
X200000D02*
X198968Y203851D01*
X198007Y203453D01*
X197181Y202819D01*
X196547Y201993D01*
X196149Y201032D01*
X196013Y200000D01*
X196149Y198968D01*
X196547Y198007D01*
X197181Y197181D01*
X198007Y196547D01*
X198968Y196149D01*
X200000Y196013D01*
X201032Y196149D01*
X201993Y196547D01*
X202819Y197181D01*
X203453Y198007D01*
X203851Y198968D01*
X203987Y200000D01*
X203851Y201032D01*
X203453Y201993D01*
X202819Y202819D01*
X201993Y203453D01*
X201032Y203851D01*
X200000Y203987D01*
D02*
G37*
G36*
X190000D02*
X188968Y203851D01*
X188007Y203453D01*
X187181Y202819D01*
X186547Y201993D01*
X186149Y201032D01*
X186013Y200000D01*
X186149Y198968D01*
X186547Y198007D01*
X187181Y197181D01*
X188007Y196547D01*
X188968Y196149D01*
X190000Y196013D01*
X191032Y196149D01*
X191993Y196547D01*
X192819Y197181D01*
X193453Y198007D01*
X193851Y198968D01*
X193987Y200000D01*
X193851Y201032D01*
X193453Y201993D01*
X192819Y202819D01*
X191993Y203453D01*
X191032Y203851D01*
X190000Y203987D01*
D02*
G37*
G36*
X180000D02*
X178968Y203851D01*
X178007Y203453D01*
X177181Y202819D01*
X176547Y201993D01*
X176149Y201032D01*
X176013Y200000D01*
X176149Y198968D01*
X176547Y198007D01*
X177181Y197181D01*
X178007Y196547D01*
X178968Y196149D01*
X180000Y196013D01*
X181032Y196149D01*
X181993Y196547D01*
X182819Y197181D01*
X183453Y198007D01*
X183851Y198968D01*
X183987Y200000D01*
X183851Y201032D01*
X183453Y201993D01*
X182819Y202819D01*
X181993Y203453D01*
X181032Y203851D01*
X180000Y203987D01*
D02*
G37*
G36*
X154000D02*
X152968Y203851D01*
X152007Y203453D01*
X151181Y202819D01*
X150547Y201993D01*
X150149Y201032D01*
X150013Y200000D01*
X150149Y198968D01*
X150547Y198007D01*
X151181Y197181D01*
X152007Y196547D01*
X152968Y196149D01*
X154000Y196013D01*
X155032Y196149D01*
X155993Y196547D01*
X156819Y197181D01*
X157453Y198007D01*
X157851Y198968D01*
X157987Y200000D01*
X157851Y201032D01*
X157453Y201993D01*
X156819Y202819D01*
X155993Y203453D01*
X155032Y203851D01*
X154000Y203987D01*
D02*
G37*
G36*
X144000D02*
X142968Y203851D01*
X142007Y203453D01*
X141181Y202819D01*
X140547Y201993D01*
X140149Y201032D01*
X140013Y200000D01*
X140149Y198968D01*
X140547Y198007D01*
X141181Y197181D01*
X142007Y196547D01*
X142968Y196149D01*
X144000Y196013D01*
X145032Y196149D01*
X145993Y196547D01*
X146819Y197181D01*
X147453Y198007D01*
X147851Y198968D01*
X147987Y200000D01*
X147851Y201032D01*
X147453Y201993D01*
X146819Y202819D01*
X145993Y203453D01*
X145032Y203851D01*
X144000Y203987D01*
D02*
G37*
G36*
X134000D02*
X132968Y203851D01*
X132007Y203453D01*
X131181Y202819D01*
X130547Y201993D01*
X130149Y201032D01*
X130013Y200000D01*
X130149Y198968D01*
X130547Y198007D01*
X131181Y197181D01*
X132007Y196547D01*
X132968Y196149D01*
X134000Y196013D01*
X135032Y196149D01*
X135993Y196547D01*
X136819Y197181D01*
X137453Y198007D01*
X137851Y198968D01*
X137987Y200000D01*
X137851Y201032D01*
X137453Y201993D01*
X136819Y202819D01*
X135993Y203453D01*
X135032Y203851D01*
X134000Y203987D01*
D02*
G37*
G36*
X124000D02*
X122968Y203851D01*
X122007Y203453D01*
X121181Y202819D01*
X120547Y201993D01*
X120149Y201032D01*
X120013Y200000D01*
X120149Y198968D01*
X120547Y198007D01*
X121181Y197181D01*
X122007Y196547D01*
X122968Y196149D01*
X124000Y196013D01*
X125032Y196149D01*
X125993Y196547D01*
X126819Y197181D01*
X127453Y198007D01*
X127851Y198968D01*
X127987Y200000D01*
X127851Y201032D01*
X127453Y201993D01*
X126819Y202819D01*
X125993Y203453D01*
X125032Y203851D01*
X124000Y203987D01*
D02*
G37*
G36*
X114000D02*
X112968Y203851D01*
X112007Y203453D01*
X111181Y202819D01*
X110547Y201993D01*
X110149Y201032D01*
X110013Y200000D01*
X110149Y198968D01*
X110547Y198007D01*
X111181Y197181D01*
X112007Y196547D01*
X112968Y196149D01*
X114000Y196013D01*
X115032Y196149D01*
X115993Y196547D01*
X116819Y197181D01*
X117453Y198007D01*
X117851Y198968D01*
X117987Y200000D01*
X117851Y201032D01*
X117453Y201993D01*
X116819Y202819D01*
X115993Y203453D01*
X115032Y203851D01*
X114000Y203987D01*
D02*
G37*
G36*
X104000D02*
X102968Y203851D01*
X102007Y203453D01*
X101181Y202819D01*
X100547Y201993D01*
X100149Y201032D01*
X100013Y200000D01*
X100149Y198968D01*
X100547Y198007D01*
X101181Y197181D01*
X102007Y196547D01*
X102968Y196149D01*
X104000Y196013D01*
X105032Y196149D01*
X105993Y196547D01*
X106819Y197181D01*
X107453Y198007D01*
X107851Y198968D01*
X107987Y200000D01*
X107851Y201032D01*
X107453Y201993D01*
X106819Y202819D01*
X105993Y203453D01*
X105032Y203851D01*
X104000Y203987D01*
D02*
G37*
G36*
X94000D02*
X92968Y203851D01*
X92007Y203453D01*
X91181Y202819D01*
X90547Y201993D01*
X90149Y201032D01*
X90013Y200000D01*
X90149Y198968D01*
X90547Y198007D01*
X91181Y197181D01*
X92007Y196547D01*
X92968Y196149D01*
X94000Y196013D01*
X95032Y196149D01*
X95993Y196547D01*
X96819Y197181D01*
X97453Y198007D01*
X97851Y198968D01*
X97987Y200000D01*
X97851Y201032D01*
X97453Y201993D01*
X96819Y202819D01*
X95993Y203453D01*
X95032Y203851D01*
X94000Y203987D01*
D02*
G37*
G36*
X180000Y193987D02*
X178968Y193851D01*
X178007Y193453D01*
X177181Y192819D01*
X176547Y191993D01*
X176149Y191032D01*
X176013Y190000D01*
X176149Y188968D01*
X176547Y188007D01*
X177181Y187181D01*
X178007Y186547D01*
X178968Y186149D01*
X180000Y186013D01*
X181032Y186149D01*
X181993Y186547D01*
X182819Y187181D01*
X183453Y188007D01*
X183851Y188968D01*
X183987Y190000D01*
X183851Y191032D01*
X183453Y191993D01*
X182819Y192819D01*
X181993Y193453D01*
X181032Y193851D01*
X180000Y193987D01*
D02*
G37*
G36*
X20000Y194980D02*
X18711Y194810D01*
X17510Y194313D01*
X16479Y193521D01*
X15687Y192490D01*
X15190Y191289D01*
X15020Y190000D01*
X15190Y188711D01*
X15687Y187510D01*
X16479Y186479D01*
X17510Y185687D01*
X18711Y185190D01*
X20000Y185020D01*
X21289Y185190D01*
X22490Y185687D01*
X23521Y186479D01*
X24313Y187510D01*
X24810Y188711D01*
X24980Y190000D01*
X24810Y191289D01*
X24313Y192490D01*
X23521Y193521D01*
X22490Y194313D01*
X21289Y194810D01*
X20000Y194980D01*
D02*
G37*
G36*
X140000Y186428D02*
X138968Y186292D01*
X138007Y185894D01*
X137181Y185260D01*
X136547Y184434D01*
X136149Y183473D01*
X136013Y182441D01*
X136149Y181409D01*
X136547Y180447D01*
X137181Y179622D01*
X138007Y178988D01*
X138968Y178590D01*
X140000Y178454D01*
X141032Y178590D01*
X141993Y178988D01*
X142819Y179622D01*
X143453Y180447D01*
X143851Y181409D01*
X143987Y182441D01*
X143851Y183473D01*
X143453Y184434D01*
X142819Y185260D01*
X141993Y185894D01*
X141032Y186292D01*
X140000Y186428D01*
D02*
G37*
G36*
X150000Y186476D02*
X148956Y186338D01*
X147983Y185935D01*
X147147Y185294D01*
X146506Y184458D01*
X146103Y183485D01*
X145966Y182441D01*
X146103Y181397D01*
X146506Y180424D01*
X147147Y179588D01*
X147983Y178947D01*
X148956Y178544D01*
X150000Y178406D01*
X151044Y178544D01*
X152017Y178947D01*
X152853Y179588D01*
X153494Y180424D01*
X153897Y181397D01*
X154034Y182441D01*
X153897Y183485D01*
X153494Y184458D01*
X152853Y185294D01*
X152017Y185935D01*
X151044Y186338D01*
X150000Y186476D01*
D02*
G37*
G36*
X180000Y183987D02*
X178968Y183851D01*
X178007Y183453D01*
X177181Y182819D01*
X176547Y181993D01*
X176149Y181032D01*
X176013Y180000D01*
X176149Y178968D01*
X176547Y178007D01*
X177181Y177181D01*
X178007Y176547D01*
X178968Y176149D01*
X180000Y176013D01*
X181032Y176149D01*
X181993Y176547D01*
X182819Y177181D01*
X183453Y178007D01*
X183851Y178968D01*
X183987Y180000D01*
X183851Y181032D01*
X183453Y181993D01*
X182819Y182819D01*
X181993Y183453D01*
X181032Y183851D01*
X180000Y183987D01*
D02*
G37*
G36*
X204724Y178237D02*
X203744Y178108D01*
X202830Y177730D01*
X202046Y177128D01*
X201444Y176343D01*
X201065Y175429D01*
X200936Y174449D01*
X201065Y173468D01*
X201444Y172555D01*
X202046Y171770D01*
X202830Y171168D01*
X203744Y170790D01*
X204724Y170660D01*
X205705Y170790D01*
X206619Y171168D01*
X207403Y171770D01*
X208005Y172555D01*
X208384Y173468D01*
X208513Y174449D01*
X208384Y175429D01*
X208005Y176343D01*
X207403Y177128D01*
X206619Y177730D01*
X205705Y178108D01*
X204724Y178237D01*
D02*
G37*
G36*
X120000Y176487D02*
X118968Y176351D01*
X118007Y175953D01*
X117181Y175319D01*
X116547Y174493D01*
X116149Y173532D01*
X116013Y172500D01*
X116149Y171468D01*
X116547Y170507D01*
X117181Y169681D01*
X118007Y169047D01*
X118968Y168649D01*
X120000Y168513D01*
X121032Y168649D01*
X121993Y169047D01*
X122819Y169681D01*
X123453Y170507D01*
X123851Y171468D01*
X123987Y172500D01*
X123851Y173532D01*
X123453Y174493D01*
X122819Y175319D01*
X121993Y175953D01*
X121032Y176351D01*
X120000Y176487D01*
D02*
G37*
G36*
X110000D02*
X108968Y176351D01*
X108007Y175953D01*
X107181Y175319D01*
X106547Y174493D01*
X106149Y173532D01*
X106013Y172500D01*
X106149Y171468D01*
X106547Y170507D01*
X107181Y169681D01*
X108007Y169047D01*
X108968Y168649D01*
X110000Y168513D01*
X111032Y168649D01*
X111993Y169047D01*
X112819Y169681D01*
X113453Y170507D01*
X113851Y171468D01*
X113987Y172500D01*
X113851Y173532D01*
X113453Y174493D01*
X112819Y175319D01*
X111993Y175953D01*
X111032Y176351D01*
X110000Y176487D01*
D02*
G37*
G36*
X100000D02*
X98968Y176351D01*
X98007Y175953D01*
X97181Y175319D01*
X96547Y174493D01*
X96149Y173532D01*
X96013Y172500D01*
X96149Y171468D01*
X96547Y170507D01*
X97181Y169681D01*
X98007Y169047D01*
X98968Y168649D01*
X100000Y168513D01*
X101032Y168649D01*
X101993Y169047D01*
X102819Y169681D01*
X103453Y170507D01*
X103851Y171468D01*
X103987Y172500D01*
X103851Y173532D01*
X103453Y174493D01*
X102819Y175319D01*
X101993Y175953D01*
X101032Y176351D01*
X100000Y176487D01*
D02*
G37*
G36*
X90000D02*
X88968Y176351D01*
X88007Y175953D01*
X87181Y175319D01*
X86547Y174493D01*
X86149Y173532D01*
X86013Y172500D01*
X86149Y171468D01*
X86547Y170507D01*
X87181Y169681D01*
X88007Y169047D01*
X88968Y168649D01*
X90000Y168513D01*
X91032Y168649D01*
X91993Y169047D01*
X92819Y169681D01*
X93453Y170507D01*
X93851Y171468D01*
X93987Y172500D01*
X93851Y173532D01*
X93453Y174493D01*
X92819Y175319D01*
X91993Y175953D01*
X91032Y176351D01*
X90000Y176487D01*
D02*
G37*
G36*
X80000D02*
X78968Y176351D01*
X78007Y175953D01*
X77181Y175319D01*
X76547Y174493D01*
X76149Y173532D01*
X76013Y172500D01*
X76149Y171468D01*
X76547Y170507D01*
X77181Y169681D01*
X78007Y169047D01*
X78968Y168649D01*
X80000Y168513D01*
X81032Y168649D01*
X81993Y169047D01*
X82819Y169681D01*
X83453Y170507D01*
X83851Y171468D01*
X83987Y172500D01*
X83851Y173532D01*
X83453Y174493D01*
X82819Y175319D01*
X81993Y175953D01*
X81032Y176351D01*
X80000Y176487D01*
D02*
G37*
G36*
X70000D02*
X68968Y176351D01*
X68007Y175953D01*
X67181Y175319D01*
X66547Y174493D01*
X66149Y173532D01*
X66013Y172500D01*
X66149Y171468D01*
X66547Y170507D01*
X67181Y169681D01*
X68007Y169047D01*
X68968Y168649D01*
X70000Y168513D01*
X71032Y168649D01*
X71993Y169047D01*
X72819Y169681D01*
X73453Y170507D01*
X73851Y171468D01*
X73987Y172500D01*
X73851Y173532D01*
X73453Y174493D01*
X72819Y175319D01*
X71993Y175953D01*
X71032Y176351D01*
X70000Y176487D01*
D02*
G37*
G36*
X60000D02*
X58968Y176351D01*
X58007Y175953D01*
X57181Y175319D01*
X56547Y174493D01*
X56149Y173532D01*
X56013Y172500D01*
X56149Y171468D01*
X56547Y170507D01*
X57181Y169681D01*
X58007Y169047D01*
X58968Y168649D01*
X60000Y168513D01*
X61032Y168649D01*
X61993Y169047D01*
X62819Y169681D01*
X63453Y170507D01*
X63851Y171468D01*
X63987Y172500D01*
X63851Y173532D01*
X63453Y174493D01*
X62819Y175319D01*
X61993Y175953D01*
X61032Y176351D01*
X60000Y176487D01*
D02*
G37*
G36*
X50000D02*
X48968Y176351D01*
X48007Y175953D01*
X47181Y175319D01*
X46547Y174493D01*
X46149Y173532D01*
X46013Y172500D01*
X46149Y171468D01*
X46547Y170507D01*
X47181Y169681D01*
X48007Y169047D01*
X48968Y168649D01*
X50000Y168513D01*
X51032Y168649D01*
X51993Y169047D01*
X52819Y169681D01*
X53453Y170507D01*
X53851Y171468D01*
X53987Y172500D01*
X53851Y173532D01*
X53453Y174493D01*
X52819Y175319D01*
X51993Y175953D01*
X51032Y176351D01*
X50000Y176487D01*
D02*
G37*
G36*
X140000Y176428D02*
X138968Y176292D01*
X138007Y175894D01*
X137181Y175260D01*
X136547Y174434D01*
X136149Y173473D01*
X136013Y172441D01*
X136149Y171409D01*
X136547Y170448D01*
X137181Y169622D01*
X138007Y168988D01*
X138968Y168590D01*
X140000Y168454D01*
X141032Y168590D01*
X141993Y168988D01*
X142819Y169622D01*
X143453Y170448D01*
X143851Y171409D01*
X143987Y172441D01*
X143851Y173473D01*
X143453Y174434D01*
X142819Y175260D01*
X141993Y175894D01*
X141032Y176292D01*
X140000Y176428D01*
D02*
G37*
G36*
X150000Y176476D02*
X148956Y176338D01*
X147983Y175935D01*
X147147Y175294D01*
X146506Y174458D01*
X146103Y173485D01*
X145966Y172441D01*
X146103Y171397D01*
X146506Y170424D01*
X147147Y169588D01*
X147983Y168947D01*
X148956Y168544D01*
X150000Y168406D01*
X151044Y168544D01*
X152017Y168947D01*
X152853Y169588D01*
X153494Y170424D01*
X153897Y171397D01*
X154034Y172441D01*
X153897Y173485D01*
X153494Y174458D01*
X152853Y175294D01*
X152017Y175935D01*
X151044Y176338D01*
X150000Y176476D01*
D02*
G37*
G36*
X180000Y173987D02*
X178968Y173851D01*
X178007Y173453D01*
X177181Y172819D01*
X176547Y171993D01*
X176149Y171032D01*
X176013Y170000D01*
X176149Y168968D01*
X176547Y168007D01*
X177181Y167181D01*
X178007Y166547D01*
X178968Y166149D01*
X180000Y166013D01*
X181032Y166149D01*
X181993Y166547D01*
X182819Y167181D01*
X183453Y168007D01*
X183851Y168968D01*
X183987Y170000D01*
X183851Y171032D01*
X183453Y171993D01*
X182819Y172819D01*
X181993Y173453D01*
X181032Y173851D01*
X180000Y173987D01*
D02*
G37*
G36*
Y163987D02*
X178968Y163851D01*
X178007Y163453D01*
X177181Y162819D01*
X176547Y161993D01*
X176149Y161032D01*
X176013Y160000D01*
X176149Y158968D01*
X176547Y158007D01*
X177181Y157181D01*
X178007Y156547D01*
X178968Y156149D01*
X180000Y156013D01*
X181032Y156149D01*
X181993Y156547D01*
X182819Y157181D01*
X183453Y158007D01*
X183851Y158968D01*
X183987Y160000D01*
X183851Y161032D01*
X183453Y161993D01*
X182819Y162819D01*
X181993Y163453D01*
X181032Y163851D01*
X180000Y163987D01*
D02*
G37*
G36*
X100039Y155914D02*
X99059Y155785D01*
X98145Y155407D01*
X97361Y154805D01*
X96759Y154020D01*
X96380Y153106D01*
X96251Y152126D01*
X96380Y151146D01*
X96759Y150232D01*
X97361Y149447D01*
X98145Y148845D01*
X99059Y148467D01*
X100039Y148338D01*
X101020Y148467D01*
X101934Y148845D01*
X102718Y149447D01*
X103320Y150232D01*
X103699Y151146D01*
X103828Y152126D01*
X103699Y153106D01*
X103320Y154020D01*
X102718Y154805D01*
X101934Y155407D01*
X101020Y155785D01*
X100039Y155914D01*
D02*
G37*
G36*
X70039D02*
X69059Y155785D01*
X68145Y155407D01*
X67361Y154805D01*
X66759Y154020D01*
X66380Y153106D01*
X66251Y152126D01*
X66380Y151146D01*
X66759Y150232D01*
X67361Y149447D01*
X68145Y148845D01*
X69059Y148467D01*
X70039Y148338D01*
X71020Y148467D01*
X71934Y148845D01*
X72718Y149447D01*
X73320Y150232D01*
X73699Y151146D01*
X73828Y152126D01*
X73699Y153106D01*
X73320Y154020D01*
X72718Y154805D01*
X71934Y155407D01*
X71020Y155785D01*
X70039Y155914D01*
D02*
G37*
G36*
X180000Y153987D02*
X178968Y153851D01*
X178007Y153453D01*
X177181Y152819D01*
X176547Y151993D01*
X176149Y151032D01*
X176013Y150000D01*
X176149Y148968D01*
X176547Y148007D01*
X177181Y147181D01*
X178007Y146547D01*
X178968Y146149D01*
X180000Y146013D01*
X181032Y146149D01*
X181993Y146547D01*
X182819Y147181D01*
X183453Y148007D01*
X183851Y148968D01*
X183987Y150000D01*
X183851Y151032D01*
X183453Y151993D01*
X182819Y152819D01*
X181993Y153453D01*
X181032Y153851D01*
X180000Y153987D01*
D02*
G37*
G36*
X150000D02*
X148968Y153851D01*
X148007Y153453D01*
X147181Y152819D01*
X146547Y151993D01*
X146149Y151032D01*
X146013Y150000D01*
X146149Y148968D01*
X146547Y148007D01*
X147181Y147181D01*
X148007Y146547D01*
X148968Y146149D01*
X150000Y146013D01*
X151032Y146149D01*
X151993Y146547D01*
X152819Y147181D01*
X153453Y148007D01*
X153851Y148968D01*
X153987Y150000D01*
X153851Y151032D01*
X153453Y151993D01*
X152819Y152819D01*
X151993Y153453D01*
X151032Y153851D01*
X150000Y153987D01*
D02*
G37*
G36*
X140000D02*
X138968Y153851D01*
X138007Y153453D01*
X137181Y152819D01*
X136547Y151993D01*
X136149Y151032D01*
X136013Y150000D01*
X136149Y148968D01*
X136547Y148007D01*
X137181Y147181D01*
X138007Y146547D01*
X138968Y146149D01*
X140000Y146013D01*
X141032Y146149D01*
X141993Y146547D01*
X142819Y147181D01*
X143453Y148007D01*
X143851Y148968D01*
X143987Y150000D01*
X143851Y151032D01*
X143453Y151993D01*
X142819Y152819D01*
X141993Y153453D01*
X141032Y153851D01*
X140000Y153987D01*
D02*
G37*
G36*
X204724Y148237D02*
X203744Y148108D01*
X202830Y147730D01*
X202046Y147128D01*
X201444Y146343D01*
X201065Y145429D01*
X200936Y144449D01*
X201065Y143468D01*
X201444Y142555D01*
X202046Y141770D01*
X202830Y141168D01*
X203744Y140790D01*
X204724Y140661D01*
X205705Y140790D01*
X206619Y141168D01*
X207403Y141770D01*
X208005Y142555D01*
X208384Y143468D01*
X208513Y144449D01*
X208384Y145429D01*
X208005Y146343D01*
X207403Y147128D01*
X206619Y147730D01*
X205705Y148108D01*
X204724Y148237D01*
D02*
G37*
G36*
X100039Y144576D02*
X99059Y144447D01*
X98145Y144068D01*
X97361Y143466D01*
X96759Y142682D01*
X96380Y141768D01*
X96251Y140787D01*
X96380Y139807D01*
X96759Y138893D01*
X97361Y138109D01*
X98145Y137507D01*
X99059Y137128D01*
X100039Y136999D01*
X101020Y137128D01*
X101934Y137507D01*
X102718Y138109D01*
X103320Y138893D01*
X103699Y139807D01*
X103828Y140787D01*
X103699Y141768D01*
X103320Y142682D01*
X102718Y143466D01*
X101934Y144068D01*
X101020Y144447D01*
X100039Y144576D01*
D02*
G37*
G36*
X70039D02*
X69059Y144447D01*
X68145Y144068D01*
X67361Y143466D01*
X66759Y142682D01*
X66380Y141768D01*
X66251Y140787D01*
X66380Y139807D01*
X66759Y138893D01*
X67361Y138109D01*
X68145Y137507D01*
X69059Y137128D01*
X70039Y136999D01*
X71020Y137128D01*
X71934Y137507D01*
X72718Y138109D01*
X73320Y138893D01*
X73699Y139807D01*
X73828Y140787D01*
X73699Y141768D01*
X73320Y142682D01*
X72718Y143466D01*
X71934Y144068D01*
X71020Y144447D01*
X70039Y144576D01*
D02*
G37*
G36*
X180000Y143987D02*
X178968Y143851D01*
X178007Y143453D01*
X177181Y142819D01*
X176547Y141993D01*
X176149Y141032D01*
X176013Y140000D01*
X176149Y138968D01*
X176547Y138007D01*
X177181Y137181D01*
X178007Y136547D01*
X178968Y136149D01*
X180000Y136013D01*
X181032Y136149D01*
X181993Y136547D01*
X182819Y137181D01*
X183453Y138007D01*
X183851Y138968D01*
X183987Y140000D01*
X183851Y141032D01*
X183453Y141993D01*
X182819Y142819D01*
X181993Y143453D01*
X181032Y143851D01*
X180000Y143987D01*
D02*
G37*
G36*
X150000D02*
X148968Y143851D01*
X148007Y143453D01*
X147181Y142819D01*
X146547Y141993D01*
X146149Y141032D01*
X146013Y140000D01*
X146149Y138968D01*
X146547Y138007D01*
X147181Y137181D01*
X148007Y136547D01*
X148968Y136149D01*
X150000Y136013D01*
X151032Y136149D01*
X151993Y136547D01*
X152819Y137181D01*
X153453Y138007D01*
X153851Y138968D01*
X153987Y140000D01*
X153851Y141032D01*
X153453Y141993D01*
X152819Y142819D01*
X151993Y143453D01*
X151032Y143851D01*
X150000Y143987D01*
D02*
G37*
G36*
X140000D02*
X138968Y143851D01*
X138007Y143453D01*
X137181Y142819D01*
X136547Y141993D01*
X136149Y141032D01*
X136013Y140000D01*
X136149Y138968D01*
X136547Y138007D01*
X137181Y137181D01*
X138007Y136547D01*
X138968Y136149D01*
X140000Y136013D01*
X141032Y136149D01*
X141993Y136547D01*
X142819Y137181D01*
X143453Y138007D01*
X143851Y138968D01*
X143987Y140000D01*
X143851Y141032D01*
X143453Y141993D01*
X142819Y142819D01*
X141993Y143453D01*
X141032Y143851D01*
X140000Y143987D01*
D02*
G37*
G36*
X19685Y142775D02*
X18396Y142605D01*
X17195Y142108D01*
X16164Y141316D01*
X15373Y140285D01*
X14875Y139084D01*
X14705Y137795D01*
X14875Y136506D01*
X15373Y135306D01*
X16164Y134274D01*
X17195Y133483D01*
X18396Y132985D01*
X19685Y132816D01*
X20974Y132985D01*
X22175Y133483D01*
X23206Y134274D01*
X23998Y135306D01*
X24495Y136506D01*
X24665Y137795D01*
X24495Y139084D01*
X23998Y140285D01*
X23206Y141316D01*
X22175Y142108D01*
X20974Y142605D01*
X19685Y142775D01*
D02*
G37*
G36*
X180000Y133987D02*
X178968Y133851D01*
X178007Y133453D01*
X177181Y132819D01*
X176547Y131993D01*
X176149Y131032D01*
X176013Y130000D01*
X176149Y128968D01*
X176547Y128007D01*
X177181Y127181D01*
X178007Y126547D01*
X178968Y126149D01*
X180000Y126013D01*
X181032Y126149D01*
X181993Y126547D01*
X182819Y127181D01*
X183453Y128007D01*
X183851Y128968D01*
X183987Y130000D01*
X183851Y131032D01*
X183453Y131993D01*
X182819Y132819D01*
X181993Y133453D01*
X181032Y133851D01*
X180000Y133987D01*
D02*
G37*
G36*
X150000D02*
X148968Y133851D01*
X148007Y133453D01*
X147181Y132819D01*
X146547Y131993D01*
X146149Y131032D01*
X146013Y130000D01*
X146149Y128968D01*
X146547Y128007D01*
X147181Y127181D01*
X148007Y126547D01*
X148968Y126149D01*
X150000Y126013D01*
X151032Y126149D01*
X151993Y126547D01*
X152819Y127181D01*
X153453Y128007D01*
X153851Y128968D01*
X153987Y130000D01*
X153851Y131032D01*
X153453Y131993D01*
X152819Y132819D01*
X151993Y133453D01*
X151032Y133851D01*
X150000Y133987D01*
D02*
G37*
G36*
X140000D02*
X138968Y133851D01*
X138007Y133453D01*
X137181Y132819D01*
X136547Y131993D01*
X136149Y131032D01*
X136013Y130000D01*
X136149Y128968D01*
X136547Y128007D01*
X137181Y127181D01*
X138007Y126547D01*
X138968Y126149D01*
X140000Y126013D01*
X141032Y126149D01*
X141993Y126547D01*
X142819Y127181D01*
X143453Y128007D01*
X143851Y128968D01*
X143987Y130000D01*
X143851Y131032D01*
X143453Y131993D01*
X142819Y132819D01*
X141993Y133453D01*
X141032Y133851D01*
X140000Y133987D01*
D02*
G37*
G36*
X180000Y123987D02*
X178968Y123851D01*
X178007Y123453D01*
X177181Y122819D01*
X176547Y121993D01*
X176149Y121032D01*
X176013Y120000D01*
X176149Y118968D01*
X176547Y118007D01*
X177181Y117181D01*
X178007Y116547D01*
X178968Y116149D01*
X180000Y116013D01*
X181032Y116149D01*
X181993Y116547D01*
X182819Y117181D01*
X183453Y118007D01*
X183851Y118968D01*
X183987Y120000D01*
X183851Y121032D01*
X183453Y121993D01*
X182819Y122819D01*
X181993Y123453D01*
X181032Y123851D01*
X180000Y123987D01*
D02*
G37*
G36*
X150000D02*
X148968Y123851D01*
X148007Y123453D01*
X147181Y122819D01*
X146547Y121993D01*
X146149Y121032D01*
X146013Y120000D01*
X146149Y118968D01*
X146547Y118007D01*
X147181Y117181D01*
X148007Y116547D01*
X148968Y116149D01*
X150000Y116013D01*
X151032Y116149D01*
X151993Y116547D01*
X152819Y117181D01*
X153453Y118007D01*
X153851Y118968D01*
X153987Y120000D01*
X153851Y121032D01*
X153453Y121993D01*
X152819Y122819D01*
X151993Y123453D01*
X151032Y123851D01*
X150000Y123987D01*
D02*
G37*
G36*
X140000D02*
X138968Y123851D01*
X138007Y123453D01*
X137181Y122819D01*
X136547Y121993D01*
X136149Y121032D01*
X136013Y120000D01*
X136149Y118968D01*
X136547Y118007D01*
X137181Y117181D01*
X138007Y116547D01*
X138968Y116149D01*
X140000Y116013D01*
X141032Y116149D01*
X141993Y116547D01*
X142819Y117181D01*
X143453Y118007D01*
X143851Y118968D01*
X143987Y120000D01*
X143851Y121032D01*
X143453Y121993D01*
X142819Y122819D01*
X141993Y123453D01*
X141032Y123851D01*
X140000Y123987D01*
D02*
G37*
G36*
X180000Y113987D02*
X178968Y113851D01*
X178007Y113453D01*
X177181Y112819D01*
X176547Y111993D01*
X176149Y111032D01*
X176013Y110000D01*
X176149Y108968D01*
X176547Y108007D01*
X177181Y107181D01*
X178007Y106547D01*
X178968Y106149D01*
X180000Y106013D01*
X181032Y106149D01*
X181993Y106547D01*
X182819Y107181D01*
X183453Y108007D01*
X183851Y108968D01*
X183987Y110000D01*
X183851Y111032D01*
X183453Y111993D01*
X182819Y112819D01*
X181993Y113453D01*
X181032Y113851D01*
X180000Y113987D01*
D02*
G37*
G36*
X150000D02*
X148968Y113851D01*
X148007Y113453D01*
X147181Y112819D01*
X146547Y111993D01*
X146149Y111032D01*
X146013Y110000D01*
X146149Y108968D01*
X146547Y108007D01*
X147181Y107181D01*
X148007Y106547D01*
X148968Y106149D01*
X150000Y106013D01*
X151032Y106149D01*
X151993Y106547D01*
X152819Y107181D01*
X153453Y108007D01*
X153851Y108968D01*
X153987Y110000D01*
X153851Y111032D01*
X153453Y111993D01*
X152819Y112819D01*
X151993Y113453D01*
X151032Y113851D01*
X150000Y113987D01*
D02*
G37*
G36*
X140000D02*
X138968Y113851D01*
X138007Y113453D01*
X137181Y112819D01*
X136547Y111993D01*
X136149Y111032D01*
X136013Y110000D01*
X136149Y108968D01*
X136547Y108007D01*
X137181Y107181D01*
X138007Y106547D01*
X138968Y106149D01*
X140000Y106013D01*
X141032Y106149D01*
X141993Y106547D01*
X142819Y107181D01*
X143453Y108007D01*
X143851Y108968D01*
X143987Y110000D01*
X143851Y111032D01*
X143453Y111993D01*
X142819Y112819D01*
X141993Y113453D01*
X141032Y113851D01*
X140000Y113987D01*
D02*
G37*
G36*
X180000Y103987D02*
X178968Y103851D01*
X178007Y103453D01*
X177181Y102819D01*
X176547Y101993D01*
X176149Y101032D01*
X176013Y100000D01*
X176149Y98968D01*
X176547Y98007D01*
X177181Y97181D01*
X178007Y96547D01*
X178968Y96149D01*
X180000Y96013D01*
X181032Y96149D01*
X181993Y96547D01*
X182819Y97181D01*
X183453Y98007D01*
X183851Y98968D01*
X183987Y100000D01*
X183851Y101032D01*
X183453Y101993D01*
X182819Y102819D01*
X181993Y103453D01*
X181032Y103851D01*
X180000Y103987D01*
D02*
G37*
G36*
X150000D02*
X148968Y103851D01*
X148007Y103453D01*
X147181Y102819D01*
X146547Y101993D01*
X146149Y101032D01*
X146013Y100000D01*
X146149Y98968D01*
X146547Y98007D01*
X147181Y97181D01*
X148007Y96547D01*
X148968Y96149D01*
X150000Y96013D01*
X151032Y96149D01*
X151993Y96547D01*
X152819Y97181D01*
X153453Y98007D01*
X153851Y98968D01*
X153987Y100000D01*
X153851Y101032D01*
X153453Y101993D01*
X152819Y102819D01*
X151993Y103453D01*
X151032Y103851D01*
X150000Y103987D01*
D02*
G37*
G36*
X140000D02*
X138968Y103851D01*
X138007Y103453D01*
X137181Y102819D01*
X136547Y101993D01*
X136149Y101032D01*
X136013Y100000D01*
X136149Y98968D01*
X136547Y98007D01*
X137181Y97181D01*
X138007Y96547D01*
X138968Y96149D01*
X140000Y96013D01*
X141032Y96149D01*
X141993Y96547D01*
X142819Y97181D01*
X143453Y98007D01*
X143851Y98968D01*
X143987Y100000D01*
X143851Y101032D01*
X143453Y101993D01*
X142819Y102819D01*
X141993Y103453D01*
X141032Y103851D01*
X140000Y103987D01*
D02*
G37*
G36*
X180000Y93987D02*
X178968Y93851D01*
X178007Y93453D01*
X177181Y92819D01*
X176547Y91993D01*
X176149Y91032D01*
X176013Y90000D01*
X176149Y88968D01*
X176547Y88007D01*
X177181Y87181D01*
X178007Y86547D01*
X178968Y86149D01*
X180000Y86013D01*
X181032Y86149D01*
X181993Y86547D01*
X182819Y87181D01*
X183453Y88007D01*
X183851Y88968D01*
X183987Y90000D01*
X183851Y91032D01*
X183453Y91993D01*
X182819Y92819D01*
X181993Y93453D01*
X181032Y93851D01*
X180000Y93987D01*
D02*
G37*
G36*
X150000D02*
X148968Y93851D01*
X148007Y93453D01*
X147181Y92819D01*
X146547Y91993D01*
X146149Y91032D01*
X146013Y90000D01*
X146149Y88968D01*
X146547Y88007D01*
X147181Y87181D01*
X148007Y86547D01*
X148968Y86149D01*
X150000Y86013D01*
X151032Y86149D01*
X151993Y86547D01*
X152819Y87181D01*
X153453Y88007D01*
X153851Y88968D01*
X153987Y90000D01*
X153851Y91032D01*
X153453Y91993D01*
X152819Y92819D01*
X151993Y93453D01*
X151032Y93851D01*
X150000Y93987D01*
D02*
G37*
G36*
X140000D02*
X138968Y93851D01*
X138007Y93453D01*
X137181Y92819D01*
X136547Y91993D01*
X136149Y91032D01*
X136013Y90000D01*
X136149Y88968D01*
X136547Y88007D01*
X137181Y87181D01*
X138007Y86547D01*
X138968Y86149D01*
X140000Y86013D01*
X141032Y86149D01*
X141993Y86547D01*
X142819Y87181D01*
X143453Y88007D01*
X143851Y88968D01*
X143987Y90000D01*
X143851Y91032D01*
X143453Y91993D01*
X142819Y92819D01*
X141993Y93453D01*
X141032Y93851D01*
X140000Y93987D01*
D02*
G37*
G36*
X19685Y91594D02*
X18396Y91424D01*
X17195Y90927D01*
X16164Y90135D01*
X15373Y89104D01*
X14875Y87903D01*
X14705Y86614D01*
X14875Y85325D01*
X15373Y84124D01*
X16164Y83093D01*
X17195Y82302D01*
X18396Y81804D01*
X19685Y81635D01*
X20974Y81804D01*
X22175Y82302D01*
X23206Y83093D01*
X23998Y84124D01*
X24495Y85325D01*
X24665Y86614D01*
X24495Y87903D01*
X23998Y89104D01*
X23206Y90135D01*
X22175Y90927D01*
X20974Y91424D01*
X19685Y91594D01*
D02*
G37*
G36*
X180000Y83987D02*
X178968Y83851D01*
X178007Y83453D01*
X177181Y82819D01*
X176547Y81993D01*
X176149Y81032D01*
X176013Y80000D01*
X176149Y78968D01*
X176547Y78007D01*
X177181Y77181D01*
X178007Y76547D01*
X178968Y76149D01*
X180000Y76013D01*
X181032Y76149D01*
X181993Y76547D01*
X182819Y77181D01*
X183453Y78007D01*
X183851Y78968D01*
X183987Y80000D01*
X183851Y81032D01*
X183453Y81993D01*
X182819Y82819D01*
X181993Y83453D01*
X181032Y83851D01*
X180000Y83987D01*
D02*
G37*
G36*
X150000D02*
X148968Y83851D01*
X148007Y83453D01*
X147181Y82819D01*
X146547Y81993D01*
X146149Y81032D01*
X146013Y80000D01*
X146149Y78968D01*
X146547Y78007D01*
X147181Y77181D01*
X148007Y76547D01*
X148968Y76149D01*
X150000Y76013D01*
X151032Y76149D01*
X151993Y76547D01*
X152819Y77181D01*
X153453Y78007D01*
X153851Y78968D01*
X153987Y80000D01*
X153851Y81032D01*
X153453Y81993D01*
X152819Y82819D01*
X151993Y83453D01*
X151032Y83851D01*
X150000Y83987D01*
D02*
G37*
G36*
X140000D02*
X138968Y83851D01*
X138007Y83453D01*
X137181Y82819D01*
X136547Y81993D01*
X136149Y81032D01*
X136013Y80000D01*
X136149Y78968D01*
X136547Y78007D01*
X137181Y77181D01*
X138007Y76547D01*
X138968Y76149D01*
X140000Y76013D01*
X141032Y76149D01*
X141993Y76547D01*
X142819Y77181D01*
X143453Y78007D01*
X143851Y78968D01*
X143987Y80000D01*
X143851Y81032D01*
X143453Y81993D01*
X142819Y82819D01*
X141993Y83453D01*
X141032Y83851D01*
X140000Y83987D01*
D02*
G37*
G36*
X180000Y73987D02*
X178968Y73851D01*
X178007Y73453D01*
X177181Y72819D01*
X176547Y71993D01*
X176149Y71032D01*
X176013Y70000D01*
X176149Y68968D01*
X176547Y68007D01*
X177181Y67181D01*
X178007Y66547D01*
X178968Y66149D01*
X180000Y66013D01*
X181032Y66149D01*
X181993Y66547D01*
X182819Y67181D01*
X183453Y68007D01*
X183851Y68968D01*
X183987Y70000D01*
X183851Y71032D01*
X183453Y71993D01*
X182819Y72819D01*
X181993Y73453D01*
X181032Y73851D01*
X180000Y73987D01*
D02*
G37*
G36*
X150000D02*
X148968Y73851D01*
X148007Y73453D01*
X147181Y72819D01*
X146547Y71993D01*
X146149Y71032D01*
X146013Y70000D01*
X146149Y68968D01*
X146547Y68007D01*
X147181Y67181D01*
X148007Y66547D01*
X148968Y66149D01*
X150000Y66013D01*
X151032Y66149D01*
X151993Y66547D01*
X152819Y67181D01*
X153453Y68007D01*
X153851Y68968D01*
X153987Y70000D01*
X153851Y71032D01*
X153453Y71993D01*
X152819Y72819D01*
X151993Y73453D01*
X151032Y73851D01*
X150000Y73987D01*
D02*
G37*
G36*
X140000D02*
X138968Y73851D01*
X138007Y73453D01*
X137181Y72819D01*
X136547Y71993D01*
X136149Y71032D01*
X136013Y70000D01*
X136149Y68968D01*
X136547Y68007D01*
X137181Y67181D01*
X138007Y66547D01*
X138968Y66149D01*
X140000Y66013D01*
X141032Y66149D01*
X141993Y66547D01*
X142819Y67181D01*
X143453Y68007D01*
X143851Y68968D01*
X143987Y70000D01*
X143851Y71032D01*
X143453Y71993D01*
X142819Y72819D01*
X141993Y73453D01*
X141032Y73851D01*
X140000Y73987D01*
D02*
G37*
G36*
X180000Y63987D02*
X178968Y63851D01*
X178007Y63453D01*
X177181Y62819D01*
X176547Y61993D01*
X176149Y61032D01*
X176013Y60000D01*
X176149Y58968D01*
X176547Y58007D01*
X177181Y57181D01*
X178007Y56547D01*
X178968Y56149D01*
X180000Y56013D01*
X181032Y56149D01*
X181993Y56547D01*
X182819Y57181D01*
X183453Y58007D01*
X183851Y58968D01*
X183987Y60000D01*
X183851Y61032D01*
X183453Y61993D01*
X182819Y62819D01*
X181993Y63453D01*
X181032Y63851D01*
X180000Y63987D01*
D02*
G37*
G36*
X160000Y58788D02*
X159019Y58659D01*
X158106Y58281D01*
X157321Y57679D01*
X156719Y56894D01*
X156341Y55980D01*
X156212Y55000D01*
X156341Y54019D01*
X156719Y53106D01*
X157321Y52321D01*
X158106Y51719D01*
X159019Y51341D01*
X160000Y51212D01*
X160980Y51341D01*
X161894Y51719D01*
X162679Y52321D01*
X163281Y53106D01*
X163659Y54019D01*
X163788Y55000D01*
X163659Y55980D01*
X163281Y56894D01*
X162679Y57679D01*
X161894Y58281D01*
X160980Y58659D01*
X160000Y58788D01*
D02*
G37*
G36*
X130000D02*
X129019Y58659D01*
X128106Y58281D01*
X127321Y57679D01*
X126719Y56894D01*
X126341Y55980D01*
X126212Y55000D01*
X126341Y54019D01*
X126719Y53106D01*
X127321Y52321D01*
X128106Y51719D01*
X129019Y51341D01*
X130000Y51212D01*
X130981Y51341D01*
X131894Y51719D01*
X132679Y52321D01*
X133281Y53106D01*
X133659Y54019D01*
X133788Y55000D01*
X133659Y55980D01*
X133281Y56894D01*
X132679Y57679D01*
X131894Y58281D01*
X130981Y58659D01*
X130000Y58788D01*
D02*
G37*
G36*
X180000Y53987D02*
X178968Y53851D01*
X178007Y53453D01*
X177181Y52819D01*
X176547Y51993D01*
X176149Y51032D01*
X176013Y50000D01*
X176149Y48968D01*
X176547Y48007D01*
X177181Y47181D01*
X178007Y46547D01*
X178968Y46149D01*
X180000Y46013D01*
X181032Y46149D01*
X181993Y46547D01*
X182819Y47181D01*
X183453Y48007D01*
X183851Y48968D01*
X183987Y50000D01*
X183851Y51032D01*
X183453Y51993D01*
X182819Y52819D01*
X181993Y53453D01*
X181032Y53851D01*
X180000Y53987D01*
D02*
G37*
G36*
Y43987D02*
X178968Y43851D01*
X178007Y43453D01*
X177181Y42819D01*
X176547Y41993D01*
X176149Y41032D01*
X176013Y40000D01*
X176149Y38968D01*
X176547Y38007D01*
X177181Y37181D01*
X178007Y36547D01*
X178968Y36149D01*
X180000Y36013D01*
X181032Y36149D01*
X181993Y36547D01*
X182819Y37181D01*
X183453Y38007D01*
X183851Y38968D01*
X183987Y40000D01*
X183851Y41032D01*
X183453Y41993D01*
X182819Y42819D01*
X181993Y43453D01*
X181032Y43851D01*
X180000Y43987D01*
D02*
G37*
G36*
X19685Y40413D02*
X18396Y40243D01*
X17195Y39746D01*
X16164Y38954D01*
X15373Y37923D01*
X14875Y36722D01*
X14705Y35433D01*
X14875Y34144D01*
X15373Y32943D01*
X16164Y31912D01*
X17195Y31121D01*
X18396Y30623D01*
X19685Y30454D01*
X20974Y30623D01*
X22175Y31121D01*
X23206Y31912D01*
X23998Y32943D01*
X24495Y34144D01*
X24665Y35433D01*
X24495Y36722D01*
X23998Y37923D01*
X23206Y38954D01*
X22175Y39746D01*
X20974Y40243D01*
X19685Y40413D01*
D02*
G37*
G36*
X160000Y36788D02*
X159019Y36659D01*
X158106Y36281D01*
X157321Y35679D01*
X156719Y34894D01*
X156341Y33981D01*
X156212Y33000D01*
X156341Y32019D01*
X156719Y31106D01*
X157321Y30321D01*
X158106Y29719D01*
X159019Y29341D01*
X160000Y29212D01*
X160980Y29341D01*
X161894Y29719D01*
X162679Y30321D01*
X163281Y31106D01*
X163659Y32019D01*
X163788Y33000D01*
X163659Y33981D01*
X163281Y34894D01*
X162679Y35679D01*
X161894Y36281D01*
X160980Y36659D01*
X160000Y36788D01*
D02*
G37*
G36*
X130000D02*
X129019Y36659D01*
X128106Y36281D01*
X127321Y35679D01*
X126719Y34894D01*
X126341Y33981D01*
X126212Y33000D01*
X126341Y32019D01*
X126719Y31106D01*
X127321Y30321D01*
X128106Y29719D01*
X129019Y29341D01*
X130000Y29212D01*
X130981Y29341D01*
X131894Y29719D01*
X132679Y30321D01*
X133281Y31106D01*
X133659Y32019D01*
X133788Y33000D01*
X133659Y33981D01*
X133281Y34894D01*
X132679Y35679D01*
X131894Y36281D01*
X130981Y36659D01*
X130000Y36788D01*
D02*
G37*
G36*
X180000Y33987D02*
X178968Y33851D01*
X178007Y33453D01*
X177181Y32819D01*
X176547Y31993D01*
X176149Y31032D01*
X176013Y30000D01*
X176149Y28968D01*
X176547Y28007D01*
X177181Y27181D01*
X178007Y26547D01*
X178968Y26149D01*
X180000Y26013D01*
X181032Y26149D01*
X181993Y26547D01*
X182819Y27181D01*
X183453Y28007D01*
X183851Y28968D01*
X183987Y30000D01*
X183851Y31032D01*
X183453Y31993D01*
X182819Y32819D01*
X181993Y33453D01*
X181032Y33851D01*
X180000Y33987D01*
D02*
G37*
G36*
X120000Y31546D02*
X118968Y31410D01*
X118007Y31012D01*
X117181Y30378D01*
X116547Y29553D01*
X116149Y28591D01*
X116013Y27559D01*
X116149Y26527D01*
X116547Y25566D01*
X117181Y24740D01*
X118007Y24106D01*
X118968Y23708D01*
X120000Y23572D01*
X121032Y23708D01*
X121993Y24106D01*
X122819Y24740D01*
X123453Y25566D01*
X123851Y26527D01*
X123987Y27559D01*
X123851Y28591D01*
X123453Y29553D01*
X122819Y30378D01*
X121993Y31012D01*
X121032Y31410D01*
X120000Y31546D01*
D02*
G37*
G36*
X110000D02*
X108968Y31410D01*
X108007Y31012D01*
X107181Y30378D01*
X106547Y29553D01*
X106149Y28591D01*
X106013Y27559D01*
X106149Y26527D01*
X106547Y25566D01*
X107181Y24740D01*
X108007Y24106D01*
X108968Y23708D01*
X110000Y23572D01*
X111032Y23708D01*
X111993Y24106D01*
X112819Y24740D01*
X113453Y25566D01*
X113851Y26527D01*
X113987Y27559D01*
X113851Y28591D01*
X113453Y29553D01*
X112819Y30378D01*
X111993Y31012D01*
X111032Y31410D01*
X110000Y31546D01*
D02*
G37*
G36*
X100000D02*
X98968Y31410D01*
X98007Y31012D01*
X97181Y30378D01*
X96547Y29553D01*
X96149Y28591D01*
X96013Y27559D01*
X96149Y26527D01*
X96547Y25566D01*
X97181Y24740D01*
X98007Y24106D01*
X98968Y23708D01*
X100000Y23572D01*
X101032Y23708D01*
X101993Y24106D01*
X102819Y24740D01*
X103453Y25566D01*
X103851Y26527D01*
X103987Y27559D01*
X103851Y28591D01*
X103453Y29553D01*
X102819Y30378D01*
X101993Y31012D01*
X101032Y31410D01*
X100000Y31546D01*
D02*
G37*
G36*
X90000D02*
X88968Y31410D01*
X88007Y31012D01*
X87181Y30378D01*
X86547Y29553D01*
X86149Y28591D01*
X86013Y27559D01*
X86149Y26527D01*
X86547Y25566D01*
X87181Y24740D01*
X88007Y24106D01*
X88968Y23708D01*
X90000Y23572D01*
X91032Y23708D01*
X91993Y24106D01*
X92819Y24740D01*
X93453Y25566D01*
X93851Y26527D01*
X93987Y27559D01*
X93851Y28591D01*
X93453Y29553D01*
X92819Y30378D01*
X91993Y31012D01*
X91032Y31410D01*
X90000Y31546D01*
D02*
G37*
G36*
X180000Y23987D02*
X178968Y23851D01*
X178007Y23453D01*
X177181Y22819D01*
X176547Y21993D01*
X176149Y21032D01*
X176013Y20000D01*
X176149Y18968D01*
X176547Y18007D01*
X177181Y17181D01*
X178007Y16547D01*
X178968Y16149D01*
X180000Y16013D01*
X181032Y16149D01*
X181993Y16547D01*
X182819Y17181D01*
X183453Y18007D01*
X183851Y18968D01*
X183987Y20000D01*
X183851Y21032D01*
X183453Y21993D01*
X182819Y22819D01*
X181993Y23453D01*
X181032Y23851D01*
X180000Y23987D01*
D02*
G37*
G36*
X51400Y25780D02*
X50111Y25610D01*
X48910Y25113D01*
X47879Y24321D01*
X47087Y23290D01*
X46590Y22089D01*
X46420Y20800D01*
X46590Y19511D01*
X47087Y18310D01*
X47879Y17279D01*
X48910Y16488D01*
X50111Y15990D01*
X51400Y15820D01*
X52689Y15990D01*
X53890Y16488D01*
X54921Y17279D01*
X55712Y18310D01*
X56210Y19511D01*
X56380Y20800D01*
X56210Y22089D01*
X55712Y23290D01*
X54921Y24321D01*
X53890Y25113D01*
X52689Y25610D01*
X51400Y25780D01*
D02*
G37*
G36*
X253953Y13953D02*
X246047D01*
Y6047D01*
X253953D01*
Y13953D01*
D02*
G37*
G36*
X183953D02*
X176047D01*
Y6047D01*
X183953D01*
Y13953D01*
D02*
G37*
G36*
X240000Y13987D02*
X238968Y13851D01*
X238007Y13453D01*
X237181Y12819D01*
X236547Y11993D01*
X236149Y11032D01*
X236013Y10000D01*
X236149Y8968D01*
X236547Y8007D01*
X237181Y7181D01*
X238007Y6547D01*
X238968Y6149D01*
X240000Y6013D01*
X241032Y6149D01*
X241993Y6547D01*
X242819Y7181D01*
X243453Y8007D01*
X243851Y8968D01*
X243987Y10000D01*
X243851Y11032D01*
X243453Y11993D01*
X242819Y12819D01*
X241993Y13453D01*
X241032Y13851D01*
X240000Y13987D01*
D02*
G37*
G36*
X230000D02*
X228968Y13851D01*
X228007Y13453D01*
X227181Y12819D01*
X226547Y11993D01*
X226149Y11032D01*
X226013Y10000D01*
X226149Y8968D01*
X226547Y8007D01*
X227181Y7181D01*
X228007Y6547D01*
X228968Y6149D01*
X230000Y6013D01*
X231032Y6149D01*
X231993Y6547D01*
X232819Y7181D01*
X233453Y8007D01*
X233851Y8968D01*
X233987Y10000D01*
X233851Y11032D01*
X233453Y11993D01*
X232819Y12819D01*
X231993Y13453D01*
X231032Y13851D01*
X230000Y13987D01*
D02*
G37*
G36*
X220000D02*
X218968Y13851D01*
X218007Y13453D01*
X217181Y12819D01*
X216547Y11993D01*
X216149Y11032D01*
X216013Y10000D01*
X216149Y8968D01*
X216547Y8007D01*
X217181Y7181D01*
X218007Y6547D01*
X218968Y6149D01*
X220000Y6013D01*
X221032Y6149D01*
X221993Y6547D01*
X222819Y7181D01*
X223453Y8007D01*
X223851Y8968D01*
X223987Y10000D01*
X223851Y11032D01*
X223453Y11993D01*
X222819Y12819D01*
X221993Y13453D01*
X221032Y13851D01*
X220000Y13987D01*
D02*
G37*
G36*
X210000D02*
X208968Y13851D01*
X208007Y13453D01*
X207181Y12819D01*
X206547Y11993D01*
X206149Y11032D01*
X206013Y10000D01*
X206149Y8968D01*
X206547Y8007D01*
X207181Y7181D01*
X208007Y6547D01*
X208968Y6149D01*
X210000Y6013D01*
X211032Y6149D01*
X211993Y6547D01*
X212819Y7181D01*
X213453Y8007D01*
X213851Y8968D01*
X213987Y10000D01*
X213851Y11032D01*
X213453Y11993D01*
X212819Y12819D01*
X211993Y13453D01*
X211032Y13851D01*
X210000Y13987D01*
D02*
G37*
G36*
X200000D02*
X198968Y13851D01*
X198007Y13453D01*
X197181Y12819D01*
X196547Y11993D01*
X196149Y11032D01*
X196013Y10000D01*
X196149Y8968D01*
X196547Y8007D01*
X197181Y7181D01*
X198007Y6547D01*
X198968Y6149D01*
X200000Y6013D01*
X201032Y6149D01*
X201993Y6547D01*
X202819Y7181D01*
X203453Y8007D01*
X203851Y8968D01*
X203987Y10000D01*
X203851Y11032D01*
X203453Y11993D01*
X202819Y12819D01*
X201993Y13453D01*
X201032Y13851D01*
X200000Y13987D01*
D02*
G37*
G36*
X170000D02*
X168968Y13851D01*
X168007Y13453D01*
X167181Y12819D01*
X166547Y11993D01*
X166149Y11032D01*
X166013Y10000D01*
X166149Y8968D01*
X166547Y8007D01*
X167181Y7181D01*
X168007Y6547D01*
X168968Y6149D01*
X170000Y6013D01*
X171032Y6149D01*
X171993Y6547D01*
X172819Y7181D01*
X173453Y8007D01*
X173851Y8968D01*
X173987Y10000D01*
X173851Y11032D01*
X173453Y11993D01*
X172819Y12819D01*
X171993Y13453D01*
X171032Y13851D01*
X170000Y13987D01*
D02*
G37*
G36*
X160000D02*
X158968Y13851D01*
X158007Y13453D01*
X157181Y12819D01*
X156547Y11993D01*
X156149Y11032D01*
X156013Y10000D01*
X156149Y8968D01*
X156547Y8007D01*
X157181Y7181D01*
X158007Y6547D01*
X158968Y6149D01*
X160000Y6013D01*
X161032Y6149D01*
X161993Y6547D01*
X162819Y7181D01*
X163453Y8007D01*
X163851Y8968D01*
X163987Y10000D01*
X163851Y11032D01*
X163453Y11993D01*
X162819Y12819D01*
X161993Y13453D01*
X161032Y13851D01*
X160000Y13987D01*
D02*
G37*
G36*
X150000D02*
X148968Y13851D01*
X148007Y13453D01*
X147181Y12819D01*
X146547Y11993D01*
X146149Y11032D01*
X146013Y10000D01*
X146149Y8968D01*
X146547Y8007D01*
X147181Y7181D01*
X148007Y6547D01*
X148968Y6149D01*
X150000Y6013D01*
X151032Y6149D01*
X151993Y6547D01*
X152819Y7181D01*
X153453Y8007D01*
X153851Y8968D01*
X153987Y10000D01*
X153851Y11032D01*
X153453Y11993D01*
X152819Y12819D01*
X151993Y13453D01*
X151032Y13851D01*
X150000Y13987D01*
D02*
G37*
G36*
X140000D02*
X138968Y13851D01*
X138007Y13453D01*
X137181Y12819D01*
X136547Y11993D01*
X136149Y11032D01*
X136013Y10000D01*
X136149Y8968D01*
X136547Y8007D01*
X137181Y7181D01*
X138007Y6547D01*
X138968Y6149D01*
X140000Y6013D01*
X141032Y6149D01*
X141993Y6547D01*
X142819Y7181D01*
X143453Y8007D01*
X143851Y8968D01*
X143987Y10000D01*
X143851Y11032D01*
X143453Y11993D01*
X142819Y12819D01*
X141993Y13453D01*
X141032Y13851D01*
X140000Y13987D01*
D02*
G37*
G36*
X130000D02*
X128968Y13851D01*
X128007Y13453D01*
X127181Y12819D01*
X126547Y11993D01*
X126149Y11032D01*
X126013Y10000D01*
X126149Y8968D01*
X126547Y8007D01*
X127181Y7181D01*
X128007Y6547D01*
X128968Y6149D01*
X130000Y6013D01*
X131032Y6149D01*
X131993Y6547D01*
X132819Y7181D01*
X133453Y8007D01*
X133851Y8968D01*
X133987Y10000D01*
X133851Y11032D01*
X133453Y11993D01*
X132819Y12819D01*
X131993Y13453D01*
X131032Y13851D01*
X130000Y13987D01*
D02*
G37*
G36*
X110000D02*
X108968Y13851D01*
X108007Y13453D01*
X107181Y12819D01*
X106547Y11993D01*
X106149Y11032D01*
X106013Y10000D01*
X106149Y8968D01*
X106547Y8007D01*
X107181Y7181D01*
X108007Y6547D01*
X108968Y6149D01*
X110000Y6013D01*
X111032Y6149D01*
X111993Y6547D01*
X112819Y7181D01*
X113453Y8007D01*
X113851Y8968D01*
X113987Y10000D01*
X113851Y11032D01*
X113453Y11993D01*
X112819Y12819D01*
X111993Y13453D01*
X111032Y13851D01*
X110000Y13987D01*
D02*
G37*
%LPD*%
D13*
X270013Y20005D02*
G03*
X270013Y20005I-13J0D01*
G01*
Y20000D02*
G03*
X270013Y20000I-13J0D01*
G01*
D02*
G03*
X270013Y20000I-13J0D01*
G01*
X260013Y10000D02*
G03*
X260013Y10000I-13J0D01*
G01*
X270013Y149000D02*
G03*
X270013Y149000I-13J0D01*
G01*
Y20005D02*
G03*
X270013Y20005I-13J0D01*
G01*
Y149000D02*
G03*
X270013Y149000I-13J0D01*
G01*
X260013Y159000D02*
G03*
X260013Y159000I-13J0D01*
G01*
X255013Y0D02*
G03*
X255013Y0I-13J0D01*
G01*
X5013D02*
G03*
X5013Y0I-13J0D01*
G01*
X260013Y5000D02*
G03*
X260013Y5000I-13J0D01*
G01*
X255013Y0D02*
G03*
X255013Y0I-13J0D01*
G01*
X260013Y10000D02*
G03*
X260013Y10000I-13J0D01*
G01*
Y5000D02*
G03*
X260013Y5000I-13J0D01*
G01*
Y205000D02*
G03*
X260013Y205000I-13J0D01*
G01*
Y159000D02*
G03*
X260013Y159000I-13J0D01*
G01*
X260013Y205000D02*
G03*
X260013Y205000I-13J0D01*
G01*
X255023Y209990D02*
G03*
X255023Y209990I-13J0D01*
G01*
X18Y205005D02*
G03*
X18Y205005I-13J0D01*
G01*
X18Y4995D02*
G03*
X18Y4995I-13J0D01*
G01*
X5003Y209990D02*
G03*
X5003Y209990I-13J0D01*
G01*
X18Y205005D02*
G03*
X18Y205005I-13J0D01*
G01*
X255013Y209990D02*
G03*
X255013Y209990I-13J0D01*
G01*
X5003D02*
G03*
X5003Y209990I-13J0D01*
G01*
X5013Y0D02*
G03*
X5013Y0I-13J0D01*
G01*
X18Y4995D02*
G03*
X18Y4995I-13J0D01*
G01*
X270000Y20000D02*
Y20005D01*
X260000Y10000D02*
X270000Y20000D01*
Y20005D02*
Y149000D01*
X260000Y159000D02*
X270000Y149000D01*
X5000Y0D02*
X255000D01*
X260000Y5000D01*
Y10000D01*
Y159000D02*
Y205000D01*
X255010Y209990D02*
X260000Y205000D01*
X5Y4995D02*
X5Y205005D01*
X4990Y209990D01*
X255000D01*
X5Y4995D02*
X5000Y0D01*
D14*
X270000Y20000D02*
Y20005D01*
D26*
X100000Y10000D02*
D03*
X65180Y20800D02*
D03*
X19685Y21654D02*
D03*
Y72835D02*
D03*
Y124016D02*
D03*
X20000Y176221D02*
D03*
M02*
